<?xml version="1.0" encoding="utf-8"?>
<!-- Generator: Adobe Illustrator 22.0.0, SVG Export Plug-In . SVG Version: 6.00 Build 0)  -->
<svg version="1.1" id="Camada_1" xmlns="http://www.w3.org/2000/svg" xmlns:xlink="http://www.w3.org/1999/xlink" x="0px" y="0px"
	 viewBox="0 0 1221.1 841.9" style="enable-background:new 0 0 1221.1 841.9;" xml:space="preserve">
<style type="text/css">
	.st0{fill:#7CC0BB;}
	.st1{fill:#424243;}
	.st2{font-family:'Panton-ExtraBold';}
	.st3{font-size:90px;}
</style>
<g>
	<polygon class="st0" points="164.5,332.9 164.5,322.8 139.9,322.8 139.9,355 125.5,355 125.5,365.1 139.9,365.1 139.9,397.3 
		164.5,397.3 164.5,387.2 150,387.2 150,365.1 204.2,365.1 204.2,387.2 189.7,387.2 189.7,397.3 214.3,397.3 214.3,365.1 
		228.6,365.1 228.6,355 214.3,355 214.3,322.8 189.7,322.8 189.7,332.9 204.2,332.9 204.2,355 150,355 150,332.9 	"/>
	<path class="st0" d="M256.5,316.8c0-2-0.1-3.2-0.3-4.5c-2.2-17.3-13.5-32.4-30-38c-18.3-6.2-35.8-1.1-47.5,10
		c-0.9,0.9-2.3,0.9-3.3,0c-9.9-9.4-23.9-14.4-39.1-12c-15.7,2.5-29.4,13.1-35.3,27.9c-2.3,5.7-3.4,11.3-3.4,16.7h0v21.7h10.2v-20.8
		c0-9,2.1-18.5,17.2-29.6c3.7-2.7,8-4.8,12.5-5.6c11.9-2.1,23,1.9,30.7,9.2c0.3,0.3,0.6,0.5,0.9,0.7c2.2,1.6,5,2.6,7.9,2.6
		c3,0,5.7-1,7.9-2.6c0.3-0.2,0.6-0.4,0.9-0.7c9.7-9.1,24.3-13,39.5-6.7c10.7,4.5,18.2,14.3,20.4,25.7c0.4,2.1,0.5,3.4,0.6,6.1v21.7
		h10.2L256.5,316.8L256.5,316.8z"/>
	<path class="st0" d="M177.1,445.1c-36.3,0-66.1-28-69-63.6H97.9c1.3,19,9.2,36.8,22.8,50.7c15.2,14.9,35.1,23.1,56.3,23.1
		c21,0,41.2-8.1,56.1-23.1c13.6-13.8,21.7-31.7,23-50.7H246C243.1,417.1,213.2,445.1,177.1,445.1z"/>
	<path class="st0" d="M214.3,461.6c0-3.8-4-6.2-7.5-4.5c-9,4.3-19.1,6.8-29.7,6.8c-10.7,0-20.8-2.4-29.8-6.7
		c-3.5-1.7-7.5,0.7-7.5,4.5v0.1c0,2,1.1,3.8,2.9,4.6c10.6,5,22.3,7.7,34.4,7.7c12,0,23.7-2.7,34.4-7.7
		C213.2,465.4,214.3,463.6,214.3,461.6L214.3,461.6z"/>
	<path class="st0" d="M154.1,485.3L154.1,485.3c0,2.3,1.5,4.4,3.8,4.9c6.2,1.5,12.6,2.4,19.2,2.4c6.5,0,13-0.9,19.2-2.4
		c2.2-0.6,3.7-2.6,3.7-4.9l0,0c0-3.3-3.1-5.7-6.3-4.9c-5.3,1.3-10.9,2-16.7,2c-5.8,0-11.3-0.7-16.7-2
		C157.2,479.6,154.1,482,154.1,485.3z"/>
</g>
<g>
	<path class="st0" d="M734.8,438.2c0-6.6,4.2-10.6,11.6-10.6c5.9,0,9.6,2.4,11.1,7c0.2,0.7,0,1.2-0.7,1.4l-1.7,0.6
		c-0.8,0.3-1.1,0.1-1.4-0.7c-1-3.1-3.2-4.6-7.3-4.6c-4.9,0-7.6,2.5-7.6,6.8v9.5c0,4.3,2.7,6.8,7.6,6.8c4.1,0,6.3-1.5,7.4-4.7
		c0.3-0.8,0.6-1,1.4-0.7l1.7,0.6c0.7,0.2,0.9,0.7,0.7,1.4c-1.5,4.8-5.3,7.1-11.2,7.1c-7.4,0-11.6-4-11.6-10.6V438.2z"/>
	<path class="st0" d="M778.9,428.2c5.6,0,8.9,3.2,8.9,8.8c0,4.4-2.2,7.4-6.1,8.2c0.7,0.4,1.4,1.2,2.1,2.3l4.6,8.9
		c0.4,0.7,0.2,1.1-0.6,1.1H786c-1.4,0-1.8-0.2-2.1-0.9l-3.8-7.6c-1.2-2.5-2.4-3.3-5.5-3.3h-4.4v10.7c0,0.8-0.3,1.1-1.1,1.1h-1.8
		c-0.8,0-1.1-0.3-1.1-1.1v-27.2c0-0.8,0.3-1.1,1.1-1.1H778.9z M778.5,431.9h-8.3V442h8.3c3.3,0,5.1-1.9,5.1-5
		C783.7,433.7,781.8,431.9,778.5,431.9z"/>
	<path class="st0" d="M796.3,438.2c0-6.6,4.2-10.6,11.6-10.6c7.4,0,11.6,4,11.6,10.6v9.4c0,6.6-4.2,10.6-11.6,10.6
		c-7.4,0-11.6-4-11.6-10.6V438.2z M815.5,438.2c0-4.4-2.7-6.9-7.6-6.9c-4.8,0-7.6,2.4-7.6,6.9v9.4c0,4.4,2.7,6.9,7.6,6.9
		c4.8,0,7.6-2.4,7.6-6.9V438.2z"/>
	<path class="st0" d="M831,459.1c-0.2,0.6-0.7,0.9-1.3,0.9h-1.8c-0.7,0-0.9-0.3-0.7-0.9l11.2-30.1c0.2-0.6,0.7-0.9,1.3-0.9h1.8
		c0.7,0,0.9,0.3,0.7,0.9L831,459.1z"/>
	<path class="st0" d="M862.4,428.2c5.8,0,9.5,3.6,9.5,9.4c0,5.8-3.6,9.3-9.5,9.3h-8.1v9.6c0,0.8-0.3,1.1-1.1,1.1h-1.8
		c-0.8,0-1.1-0.3-1.1-1.1v-27.2c0-0.8,0.3-1.1,1.1-1.1H862.4z M862,443.2c3.6,0,5.7-2.1,5.7-5.6c0-3.5-2.1-5.7-5.7-5.7h-7.7v11.3
		H862z"/>
	<path class="st0" d="M893.1,428.2c5.6,0,8.9,3.2,8.9,8.8c0,4.4-2.2,7.4-6.1,8.2c0.7,0.4,1.4,1.2,2.1,2.3l4.6,8.9
		c0.4,0.7,0.2,1.1-0.6,1.1h-1.8c-1.4,0-1.8-0.2-2.1-0.9l-3.8-7.6c-1.2-2.5-2.4-3.3-5.5-3.3h-4.4v10.7c0,0.8-0.3,1.1-1.1,1.1h-1.8
		c-0.8,0-1.1-0.3-1.1-1.1v-27.2c0-0.8,0.3-1.1,1.1-1.1H893.1z M892.7,431.9h-8.3V442h8.3c3.3,0,5.1-1.9,5.1-5
		C897.9,433.7,896,431.9,892.7,431.9z"/>
	<path class="st0" d="M936.2,428.2c0.8,0,1.1,0.3,1.1,1.1v27.2c0,0.8-0.3,1.1-1.1,1.1h-1.8c-0.8,0-1.1-0.3-1.1-1.1V433l-7.4,4.1
		c-0.7,0.5-1.2,0.3-1.6-0.4l-0.8-1.5c-0.3-0.6-0.2-1.1,0.5-1.5l9.2-5.2c0.5-0.3,1-0.5,1.5-0.5H936.2z"/>
	<path class="st0" d="M957.2,427.6c6.6,0,10.1,2.7,10.1,7.7c0,3.2-1.7,5.5-5.1,7c3.8,1.5,6,3.6,6,7.5c0,5.2-3.4,8.4-11,8.4
		c-7.3,0-11-2.6-11-7.8c0-3.4,2-6,6-7.6c-3.2-1.5-5-3.6-5-7.2C947.1,430.5,950.9,427.6,957.2,427.6z M963,447.1
		c-0.5-0.5-0.7-0.8-1.5-1.2c-0.9-0.4-1-0.5-2.1-0.8c-0.5-0.1-0.9-0.3-1.1-0.3c-0.3-0.1-2.3-0.5-2.6-0.6c-3.6,1-5.5,3-5.5,5.9
		c0,3.1,2.3,4.7,6.9,4.7c4.8,0,6.8-1.7,6.8-4.8C964,448.7,963.7,447.8,963,447.1z M957.2,431c-3.8,0-6,1.6-6,4.5
		c0,1.6,0.5,2.7,1.8,3.5c1.3,0.8,2.3,1.2,4.3,1.7l1.3,0.3c1.2-0.4,1.5-0.6,2.9-1.4c1.3-0.8,2-2.2,2-4.1
		C963.4,432.6,961.1,431,957.2,431z"/>
	<path class="st0" d="M978.6,453.3c1.6,0,2.1,0.5,2.1,2.1v0.3c0,1.6-0.5,2.1-2.1,2.1h-0.3c-1.6,0-2.1-0.5-2.1-2.1v-0.3
		c0-1.6,0.5-2.1,2.1-2.1H978.6z"/>
	<path class="st0" d="M988.6,437.4c0-6.1,4-9.8,10.8-9.8c6.7,0,10.7,3.7,10.7,9.8v11c0,6.1-4,9.8-10.7,9.8c-6.8,0-10.8-3.7-10.8-9.8
		V437.4z M1006,437.4c0-3.8-2.4-6.1-6.7-6.1c-4.3,0-6.7,2.2-6.7,6.1v11c0,3.8,2.4,6.1,6.7,6.1c4.3,0,6.7-2.3,6.7-6.1V437.4z"/>
	<path class="st0" d="M1036.2,444.9c-2.2,0.7-4.7,1.1-7.3,1.1c-7,0-10.5-3.1-10.5-9.2c0-5.7,4.1-9.2,10.9-9.2
		c7.1,0,10.9,4,10.9,10.6v9.3c0,6.8-3.8,10.6-10.9,10.6c-5.3,0-8.8-2.1-10.5-6.4c-0.3-0.6,0-1.1,0.7-1.4l1.7-0.6
		c0.8-0.3,1-0.1,1.4,0.7c1.1,2.7,3.4,4.1,6.7,4.1c4.5,0,6.9-2.4,6.9-6.9V444.9z M1036.2,438.2c0-4.4-2.4-6.9-6.9-6.9
		c-4.4,0-6.9,2-6.9,5.5c0,3.7,2,5.5,6.8,5.5c3.1,0,5.5-0.4,7-1.2V438.2z"/>
	<path class="st0" d="M1066.3,444.9c-2.2,0.7-4.7,1.1-7.3,1.1c-7,0-10.5-3.1-10.5-9.2c0-5.7,4.1-9.2,10.9-9.2
		c7.1,0,10.9,4,10.9,10.6v9.3c0,6.8-3.8,10.6-10.9,10.6c-5.3,0-8.8-2.1-10.5-6.4c-0.3-0.6,0-1.1,0.7-1.4l1.7-0.6
		c0.8-0.3,1-0.1,1.4,0.7c1.1,2.7,3.4,4.1,6.7,4.1c4.5,0,6.9-2.4,6.9-6.9V444.9z M1066.3,438.2c0-4.4-2.4-6.9-6.9-6.9
		c-4.4,0-6.9,2-6.9,5.5c0,3.7,2,5.5,6.8,5.5c3.1,0,5.5-0.4,7-1.2V438.2z"/>
</g>
<text transform="matrix(1 0 0 1 289.6211 408.2781)" class="st1 st2 st3">ODONTO HERRERA</text>
</svg>
