<?xml version="1.0" encoding="utf-8"?>
<!-- Generator: Adobe Illustrator 22.0.0, SVG Export Plug-In . SVG Version: 6.00 Build 0)  -->
<svg version="1.1" id="Camada_1" xmlns="http://www.w3.org/2000/svg" xmlns:xlink="http://www.w3.org/1999/xlink" x="0px" y="0px"
	 viewBox="0 0 1221.1 841.9" style="enable-background:new 0 0 1221.1 841.9;" xml:space="preserve">
<style type="text/css">
	.st0{fill:#4CC1BC;}
	.st1{fill:#ffffff;}
</style>
<g>
	<g>
		<polygon class="st0" points="176.4,299.7 176.4,276.9 120.6,276.9 120.6,349.7 88.2,349.7 88.2,372.6 120.6,372.6 120.6,445.5 
			176.4,445.5 176.4,422.6 143.5,422.6 143.5,372.6 266.4,372.6 266.4,422.6 233.5,422.6 233.5,445.5 289.3,445.5 289.3,372.6 
			321.7,372.6 321.7,349.7 289.3,349.7 289.3,276.9 233.5,276.9 233.5,299.7 266.4,299.7 266.4,349.7 143.5,349.7 143.5,299.7 		"/>
		<path class="st0" d="M384.9,263.2c0-4.4-0.2-7.3-0.6-10.3c-5-39.2-30.5-73.5-68-86.2c-41.4-14-81-2.6-107.6,22.6
			c-2.1,2-5.3,2-7.4,0c-22.5-21.2-54.2-32.7-88.6-27.3c-35.6,5.6-66.5,29.8-80,63.2c-5.2,12.9-7.6,25.6-7.6,37.9H25v49.3h23.1v-47.2
			c0-20.4,4.7-41.8,39-67.1c8.4-6.2,18-10.9,28.3-12.7c27-4.7,52,4.2,69.7,20.9c0.6,0.6,1.3,1,2,1.5c5.1,3.7,11.2,6,18,6
			c6.8,0,12.9-2.3,18-6c0.7-0.5,1.4-0.9,2-1.5c21.9-20.7,55.1-29.4,89.4-15.1c24.3,10.1,41.2,32.4,46.2,58.3
			c0.9,4.7,1.2,7.6,1.3,13.7v49.2h23.1L384.9,263.2L384.9,263.2z"/>
		<path class="st0" d="M205,553.9c-82.3,0-149.7-63.4-156.2-144.1H25.6c2.9,43.1,20.8,83.5,51.7,114.8
			C111.7,558.5,156.8,577,205,577c47.7,0,93.3-18.5,127.1-52.3c30.9-31.4,49.2-71.8,52.2-114.8h-23.1
			C354.6,490.5,286.8,553.9,205,553.9z"/>
		<path class="st0" d="M289.3,591.1c0-8.7-9.1-14-16.9-10.3c-20.4,9.8-43.3,15.3-67.4,15.3c-24.2,0-47-5.5-67.4-15.2
			c-7.8-3.7-16.9,1.6-16.9,10.3v0.2c0,4.4,2.5,8.6,6.5,10.5c24,11.4,50.4,17.4,77.9,17.4c27.2,0,53.8-6,77.8-17.5
			c4-1.9,6.5-6,6.5-10.5V591.1z"/>
		<path class="st0" d="M153,645L153,645c0,5.2,3.5,9.9,8.5,11.1c14,3.5,28.6,5.4,43.5,5.4c14.8,0,29.3-2,43.4-5.5
			c5-1.3,8.5-5.9,8.5-11.1v0c0-7.5-7-12.9-14.2-11.1c-12.1,3-24.7,4.6-37.7,4.6c-13,0-25.7-1.6-37.8-4.6
			C160,632.1,153,637.5,153,645z"/>
	</g>
	<g>
		<g>
			<path class="st1" d="M535.6,356.7c5.5,0,7.1,1.8,7.1,7.3v111.1c0,5.5-1.6,7.3-7.1,7.3h-14.3c-5.5,0-7.3-1.8-7.3-7.3v-43.2h-42.6
				v43.2c0,5.5-1.8,7.3-7.3,7.3h-14.3c-5.5,0-7.3-1.8-7.3-7.3V364c0-5.5,1.8-7.3,7.3-7.3h14.3c5.5,0,7.3,1.8,7.3,7.3v41.6H514V364
				c0-5.5,1.8-7.3,7.3-7.3H535.6z"/>
			<path class="st1" d="M638.5,356.7c5.5,0,7.2,1.8,7.2,7.3v11.9c0,5.5-1.8,7.1-7.2,7.1h-49.6v22.8h40.7c5.5,0,7.3,1.6,7.3,7.1v11.9
				c0,5.5-1.8,7.3-7.3,7.3h-40.7V456h51.3c5.1,0,7.2,2.1,7.2,7.3v11.9c0,5.5-1.8,7.3-7.2,7.3h-72.9c-5.5,0-7.3-1.8-7.3-7.3V364
				c0-5.5,1.8-7.3,7.3-7.3H638.5z"/>
			<path class="st1" d="M715.3,356.7c25.7,0,41.8,15.2,41.8,40.7c0,17.9-6.9,30.1-20.5,36.3c0.4,0.5,1.6,2.5,3.7,6.2l18.2,34.9
				c2.6,4.2,1.4,7.6-3.7,7.6h-14.2c-9,0-12.2-1.4-14.9-6.9l-13.1-27.3c-4.1-8.3-7.4-10.4-17.5-10.4h-7.3v37.3c0,5.5-1.8,7.3-7.3,7.3
				h-14.3c-5.5,0-7.3-1.8-7.3-7.3V364c0-5.5,1.8-7.3,7.3-7.3H715.3z M727.2,397.4c0-4.6-1.2-8.1-3.7-10.8c-2.7-2.5-6.2-3.7-11-3.7
				h-24.6v29h24.6c4.8,0,8.3-1.2,11-3.9C725.9,405.6,727.2,402,727.2,397.4z"/>
			<path class="st1" d="M827,356.7c25.7,0,41.8,15.2,41.8,40.7c0,17.9-6.9,30.1-20.5,36.3c0.4,0.5,1.6,2.5,3.7,6.2l18.2,34.9
				c2.6,4.2,1.4,7.6-3.7,7.6h-14.2c-9,0-12.2-1.4-14.9-6.9l-13.1-27.3c-4.1-8.3-7.4-10.4-17.5-10.4h-7.3v37.3c0,5.5-1.8,7.3-7.3,7.3
				H778c-5.5,0-7.3-1.8-7.3-7.3V364c0-5.5,1.8-7.3,7.3-7.3H827z M838.9,397.4c0-4.6-1.2-8.1-3.7-10.8c-2.7-2.5-6.2-3.7-11-3.7h-24.6
				v29h24.6c4.8,0,8.3-1.2,11-3.9C837.6,405.6,838.9,402,838.9,397.4z"/>
			<path class="st1" d="M960.8,356.7c5.5,0,7.3,1.8,7.3,7.3v11.9c0,5.5-1.8,7.1-7.3,7.1h-49.5v22.8H952c5.5,0,7.3,1.6,7.3,7.1v11.9
				c0,5.5-1.8,7.3-7.3,7.3h-40.7V456h51.3c5.1,0,7.2,2.1,7.2,7.3v11.9c0,5.5-1.8,7.3-7.2,7.3h-72.9c-5.5,0-7.3-1.8-7.3-7.3V364
				c0-5.5,1.8-7.3,7.3-7.3H960.8z"/>
			<path class="st1" d="M1037.7,356.7c25.7,0,41.8,15.2,41.8,40.7c0,17.9-6.9,30.1-20.5,36.3c0.4,0.5,1.6,2.5,3.7,6.2l18.2,34.9
				c2.6,4.2,1.4,7.6-3.7,7.6H1063c-9,0-12.2-1.4-14.9-6.9l-13.1-27.3c-4.1-8.3-7.4-10.4-17.5-10.4h-7.3v37.3c0,5.5-1.8,7.3-7.3,7.3
				h-14.3c-5.5,0-7.3-1.8-7.3-7.3V364c0-5.5,1.8-7.3,7.3-7.3H1037.7z M1049.5,397.4c0-4.6-1.2-8.1-3.7-10.8c-2.7-2.5-6.2-3.7-11-3.7
				h-24.6v29h24.6c4.8,0,8.3-1.2,11-3.9C1048.3,405.6,1049.5,402,1049.5,397.4z"/>
			<path class="st1" d="M1202.3,475.3c1.8,4.8,0.2,7.1-4.8,7.1h-13.3c-8.7,0-11.5-1.4-13.1-6.6l-5.5-16.6H1122l-5.7,16.6
				c-1.9,5.1-4.3,6.6-12.9,6.6h-12.2c-5,0-6.6-2.3-4.8-7.1l42.3-112.6c1.6-4.8,3.7-6,8.9-6h13.6c5.1,0,7.2,1.2,8.8,5.7L1202.3,475.3
				z M1149,408.4c-2.3-7.6-4.1-17.2-4.3-21.9l-0.2-3.4h-1.8c0.2,8.3-1.2,16.8-4.1,25.1l-9.2,27.6h28.7L1149,408.4z"/>
		</g>
	</g>
	<g>
		<path class="st1" d="M442.5,292c0-12.4,7.8-19.8,21.7-19.8c13.9,0,21.7,7.4,21.7,19.8v17.6c0,12.4-7.8,19.8-21.7,19.8
			c-13.9,0-21.7-7.4-21.7-19.8V292z M478.4,292c0-8.3-5.1-12.8-14.2-12.8c-9.1,0-14.2,4.6-14.2,12.8v17.6c0,8.3,5.1,12.9,14.2,12.9
			c9.1,0,14.2-4.6,14.2-12.9V292z"/>
		<path class="st1" d="M522.4,273.3c14.2,0,22.4,7.7,22.4,20.4v14.1c0,12.7-8.2,20.4-22.4,20.4h-16.9c-1.5,0-2-0.5-2-2v-50.9
			c0-1.5,0.5-2,2-2H522.4z M537.3,293.7c0-8.6-5.3-13.4-14.9-13.4H511v41h11.4c9.6,0,14.9-4.8,14.9-13.4V293.7z"/>
		<path class="st1" d="M560.7,292c0-12.4,7.8-19.8,21.7-19.8c13.9,0,21.7,7.4,21.7,19.8v17.6c0,12.4-7.8,19.8-21.7,19.8
			c-13.9,0-21.7-7.4-21.7-19.8V292z M596.5,292c0-8.3-5.1-12.8-14.2-12.8c-9.1,0-14.2,4.6-14.2,12.8v17.6c0,8.3,5.1,12.9,14.2,12.9
			c9.1,0,14.2-4.6,14.2-12.9V292z"/>
		<path class="st1" d="M661.8,273.3c1.5,0,2,0.5,2,2v50.9c0,1.5-0.5,2-2,2h-3.4c-0.9,0-1.6-0.3-2.1-1l-22.1-32.1
			c-1.2-1.9-2.6-4.3-3.9-7.3l-2.3-4.6h-0.4c0,0.1,0.2,1.9,0.7,5.3c0.4,3.5,0.6,6.5,0.6,9.1v28.6c0,1.5-0.5,2-2.1,2h-3.2
			c-1.5,0-2-0.5-2-2v-50.9c0-1.5,0.5-2,2-2h3.4c0.9,0,1.6,0.3,2,1l21.8,31.6c1.4,2.1,2.9,4.6,4.3,7.6c1.5,3,2.2,4.6,2.3,4.8h0.4
			c0-0.2-0.2-2-0.6-5.6c-0.4-3.5-0.6-6.7-0.6-9.4v-28c0-1.5,0.5-2,2-2H661.8z"/>
		<path class="st1" d="M717.1,273.3c1.5,0,2,0.5,2,2v2.9c0,1.5-0.5,2-2,2h-14.6v46c0,1.5-0.5,2-2,2h-3.4c-1.6,0-2-0.5-2-2v-46h-14.6
			c-1.5,0-2-0.5-2-2v-2.9c0-1.5,0.5-2,2-2H717.1z"/>
		<path class="st1" d="M731.2,292c0-12.4,7.8-19.8,21.7-19.8c13.9,0,21.7,7.4,21.7,19.8v17.6c0,12.4-7.8,19.8-21.7,19.8
			c-13.9,0-21.7-7.4-21.7-19.8V292z M767.1,292c0-8.3-5.1-12.8-14.2-12.8c-9.1,0-14.2,4.6-14.2,12.8v17.6c0,8.3,5.1,12.9,14.2,12.9
			c9.1,0,14.2-4.6,14.2-12.9V292z"/>
		<path class="st1" d="M797.6,273.3c1.5,0,2.1,0.5,2.1,2v46H824c1.6,0,2.1,0.5,2.1,2v2.9c0,1.5-0.5,2-2.1,2h-29.8c-1.5,0-2-0.5-2-2
			v-50.9c0-1.5,0.5-2,2-2H797.6z"/>
		<path class="st1" d="M838,292c0-12.4,7.8-19.8,21.7-19.8c13.9,0,21.7,7.4,21.7,19.8v17.6c0,12.4-7.8,19.8-21.7,19.8
			c-13.9,0-21.7-7.4-21.7-19.8V292z M873.9,292c0-8.3-5.1-12.8-14.2-12.8c-9.1,0-14.2,4.6-14.2,12.8v17.6c0,8.3,5.1,12.9,14.2,12.9
			c9.1,0,14.2-4.6,14.2-12.9V292z"/>
		<path class="st1" d="M938.6,299c1.6,0,2.1,0.5,2.1,2.1v9.9c0,11.1-8,18.4-21.7,18.4c-13.9,0-21.7-7.4-21.7-19.8V292
			c0-12.4,7.8-19.8,21.7-19.8c11,0,18,4.4,20.8,13.2c0.4,1.3,0,2.2-1.3,2.6l-3.2,1.1c-1.5,0.5-2.1,0.2-2.6-1.2
			c-1.9-5.9-6-8.7-13.7-8.7c-9.2,0-14.2,4.6-14.2,12.8v17.7c0,8.1,5.1,12.9,14.2,12.9c9,0,14.2-4.6,14.2-11.5v-5h-13.4
			c-1.6,0-2-0.5-2-2V301c0-1.5,0.5-2,2-2H938.6z"/>
		<path class="st1" d="M957.7,275.3c0-1.5,0.5-2,2-2h3.4c1.6,0,2.1,0.5,2.1,2v50.9c0,1.5-0.5,2-2.1,2h-3.4c-1.5,0-2-0.5-2-2V275.3z"
			/>
		<path class="st1" d="M1028.7,326.2c0.5,1.3,0,2-1.4,2h-3c-2.5,0-3.2-0.3-3.7-1.8l-4.8-12.6h-22.9l-4.8,12.6
			c-0.5,1.5-1.2,1.8-3.7,1.8h-2.7c-1.4,0-1.9-0.7-1.4-2l20.1-51.4c0.4-1.2,1.2-1.7,2.6-1.7h3.1c1.3,0,2.2,0.5,2.6,1.6L1028.7,326.2z
			 M1005.9,287.4c-0.9-2.7-1.4-5.2-1.4-7.3h-0.5l-0.1,1.1c-0.1,1.3-0.5,4-1.2,6.1l-7.8,20.4h18.7L1005.9,287.4z"/>
	</g>
	<g>
		<path class="st1" d="M942.7,509.3c0-5.1,3.2-8.2,9-8.2c4.6,0,7.5,1.8,8.6,5.5c0.2,0.5,0,0.9-0.5,1.1l-1.3,0.5
			c-0.6,0.2-0.9,0.1-1.1-0.5c-0.8-2.4-2.5-3.6-5.7-3.6c-3.8,0-5.9,1.9-5.9,5.3v7.4c0,3.3,2.1,5.3,5.9,5.3c3.2,0,4.9-1.2,5.7-3.7
			c0.2-0.6,0.5-0.8,1.1-0.5l1.3,0.5c0.5,0.2,0.7,0.5,0.5,1.1c-1.2,3.7-4.1,5.5-8.7,5.5c-5.7,0-9-3.1-9-8.2V509.3z"/>
		<path class="st1" d="M977,501.6c4.3,0,6.9,2.5,6.9,6.8c0,3.4-1.7,5.7-4.7,6.4c0.6,0.3,1.1,0.9,1.6,1.8l3.6,6.9
			c0.3,0.6,0.2,0.9-0.4,0.9h-1.4c-1.1,0-1.4-0.1-1.7-0.7l-2.9-5.9c-0.9-1.9-1.9-2.5-4.2-2.5h-3.4v8.3c0,0.6-0.2,0.8-0.9,0.8h-1.4
			c-0.6,0-0.8-0.2-0.8-0.8v-21.1c0-0.6,0.2-0.8,0.8-0.8H977z M976.7,504.5h-6.5v7.9h6.5c2.5,0,4-1.4,4-3.9
			C980.7,505.9,979.2,504.5,976.7,504.5z"/>
		<path class="st1" d="M990.5,509.3c0-5.1,3.2-8.2,9-8.2c5.7,0,9,3.1,9,8.2v7.3c0,5.1-3.2,8.2-9,8.2c-5.7,0-9-3.1-9-8.2V509.3z
			 M1005.3,509.3c0-3.4-2.1-5.3-5.9-5.3c-3.8,0-5.9,1.9-5.9,5.3v7.3c0,3.4,2.1,5.3,5.9,5.3c3.8,0,5.9-1.9,5.9-5.3V509.3z"/>
		<path class="st1" d="M1017.4,525.6c-0.2,0.5-0.5,0.7-1,0.7h-1.4c-0.5,0-0.7-0.2-0.5-0.7l8.7-23.3c0.2-0.5,0.5-0.7,1-0.7h1.4
			c0.5,0,0.7,0.2,0.5,0.7L1017.4,525.6z"/>
		<path class="st1" d="M1041.8,501.6c4.5,0,7.4,2.8,7.4,7.3c0,4.5-2.8,7.2-7.4,7.2h-6.3v7.4c0,0.6-0.2,0.8-0.9,0.8h-1.4
			c-0.6,0-0.8-0.2-0.8-0.8v-21.1c0-0.6,0.2-0.8,0.8-0.8H1041.8z M1041.5,513.2c2.8,0,4.4-1.6,4.4-4.3c0-2.7-1.6-4.4-4.4-4.4h-6v8.7
			H1041.5z"/>
		<path class="st1" d="M1065.6,501.6c4.3,0,6.9,2.5,6.9,6.8c0,3.4-1.7,5.7-4.7,6.4c0.6,0.3,1.1,0.9,1.6,1.8l3.6,6.9
			c0.3,0.6,0.2,0.9-0.4,0.9h-1.4c-1.1,0-1.4-0.1-1.7-0.7l-2.9-5.9c-0.9-1.9-1.9-2.5-4.2-2.5h-3.4v8.3c0,0.6-0.2,0.8-0.9,0.8h-1.4
			c-0.6,0-0.8-0.2-0.8-0.8v-21.1c0-0.6,0.2-0.8,0.8-0.8H1065.6z M1065.3,504.5h-6.5v7.9h6.5c2.5,0,4-1.4,4-3.9
			C1069.3,505.9,1067.9,504.5,1065.3,504.5z"/>
		<path class="st1" d="M1099,501.6c0.6,0,0.8,0.2,0.8,0.8v21.1c0,0.6-0.2,0.8-0.8,0.8h-1.4c-0.6,0-0.8-0.2-0.8-0.8v-18.2l-5.7,3.2
			c-0.5,0.4-1,0.3-1.3-0.3l-0.6-1.1c-0.3-0.5-0.1-0.9,0.4-1.2l7.1-4c0.4-0.2,0.8-0.4,1.2-0.4H1099z"/>
		<path class="st1" d="M1115.4,501.1c5.1,0,7.8,2.1,7.8,6c0,2.5-1.3,4.3-3.9,5.5c2.9,1.2,4.7,2.8,4.7,5.8c0,4-2.7,6.5-8.5,6.5
			c-5.7,0-8.5-2-8.5-6c0-2.7,1.5-4.7,4.6-5.9c-2.5-1.2-3.9-2.8-3.9-5.6C1107.6,503.3,1110.5,501.1,1115.4,501.1z M1119.9,516.2
			c-0.4-0.4-0.5-0.6-1.2-0.9c-0.7-0.3-0.7-0.4-1.6-0.6c-0.4-0.1-0.7-0.2-0.9-0.3c-0.2-0.1-1.8-0.4-2-0.5c-2.8,0.8-4.2,2.3-4.2,4.6
			c0,2.4,1.8,3.6,5.4,3.6c3.8,0,5.3-1.3,5.3-3.7C1120.7,517.5,1120.4,516.8,1119.9,516.2z M1115.4,503.8c-3,0-4.7,1.2-4.7,3.5
			c0,1.3,0.4,2.1,1.4,2.7c1,0.6,1.8,0.9,3.3,1.3l1,0.3c0.9-0.3,1.2-0.4,2.2-1.1c1-0.6,1.5-1.7,1.5-3.1
			C1120.2,505,1118.4,503.8,1115.4,503.8z"/>
		<path class="st1" d="M1132,521.1c1.2,0,1.6,0.4,1.6,1.6v0.3c0,1.3-0.4,1.6-1.6,1.6h-0.2c-1.3,0-1.6-0.4-1.6-1.6v-0.3
			c0-1.3,0.4-1.6,1.6-1.6H1132z"/>
		<path class="st1" d="M1139.7,508.7c0-4.7,3.1-7.6,8.4-7.6c5.2,0,8.3,2.9,8.3,7.6v8.5c0,4.7-3.1,7.6-8.3,7.6
			c-5.3,0-8.4-2.9-8.4-7.6V508.7z M1153.3,508.7c0-3-1.9-4.7-5.2-4.7c-3.3,0-5.2,1.7-5.2,4.7v8.5c0,3,1.9,4.7,5.2,4.7
			c3.3,0,5.2-1.8,5.2-4.7V508.7z"/>
		<path class="st1" d="M1176.7,514.5c-1.7,0.5-3.6,0.8-5.6,0.8c-5.4,0-8.2-2.4-8.2-7.1c0-4.5,3.2-7.2,8.4-7.2c5.5,0,8.4,3.1,8.4,8.3
			v7.3c0,5.3-3,8.2-8.4,8.2c-4.1,0-6.8-1.7-8.1-5c-0.2-0.5,0-0.8,0.5-1.1l1.3-0.5c0.6-0.2,0.8-0.1,1.1,0.5c0.9,2.1,2.6,3.1,5.2,3.1
			c3.5,0,5.4-1.8,5.4-5.3V514.5z M1176.7,509.3c0-3.4-1.9-5.3-5.4-5.3c-3.4,0-5.4,1.5-5.4,4.3c0,2.9,1.6,4.2,5.3,4.2
			c2.4,0,4.3-0.3,5.5-1V509.3z"/>
		<path class="st1" d="M1200.1,514.5c-1.7,0.5-3.6,0.8-5.6,0.8c-5.4,0-8.2-2.4-8.2-7.1c0-4.5,3.2-7.2,8.4-7.2c5.5,0,8.4,3.1,8.4,8.3
			v7.3c0,5.3-3,8.2-8.4,8.2c-4.1,0-6.8-1.7-8.1-5c-0.2-0.5,0-0.8,0.5-1.1l1.3-0.5c0.6-0.2,0.8-0.1,1.1,0.5c0.9,2.1,2.6,3.1,5.2,3.1
			c3.5,0,5.4-1.8,5.4-5.3V514.5z M1200.1,509.3c0-3.4-1.9-5.3-5.4-5.3c-3.4,0-5.4,1.5-5.4,4.3c0,2.9,1.6,4.2,5.3,4.2
			c2.4,0,4.3-0.3,5.5-1V509.3z"/>
	</g>
</g>
</svg>
