<?xml version="1.0" encoding="iso-8859-1"?>
<!-- Generator: Adobe Illustrator 19.0.0, SVG Export Plug-In . SVG Version: 6.00 Build 0)  -->
<svg xmlns="http://www.w3.org/2000/svg" xmlns:xlink="http://www.w3.org/1999/xlink" version="1.1" id="Capa_1" x="0px" y="0px" viewBox="0 0 480 480" style="enable-background:new 0 0 480 480;" xml:space="preserve" width="512px" height="512px">
<g>
	<g>
		<path d="M456,0H24C10.768,0,0,10.768,0,24v264v48c0,13.232,10.768,24,24,24h150.416l-13.088,72H136c-13.232,0-24,10.768-24,24    s10.768,24,24,24h208c13.232,0,24-10.768,24-24s-10.768-24-24-24h-25.328l-13.088-72H456c13.232,0,24-10.768,24-24v-48V24    C480,10.768,469.232,0,456,0z M312,448h32c4.408,0,8,3.584,8,8c0,4.416-3.592,8-8,8H136c-4.408,0-8-3.584-8-8c0-4.416,3.592-8,8-8    h32h48c4.416,0,8-3.576,8-8s-3.584-8-8-8h-38.416l13.088-72h98.648l13.096,72H264c-4.416,0-8,3.576-8,8s3.584,8,8,8H312z M464,336    c0,4.416-3.592,8-8,8H296H184H24c-4.408,0-8-3.584-8-8v-40h80h64h160h64h80V336z M80.84,163.576l12.424,24.84l-8.84,4.424    c-3.952,1.976-5.552,6.784-3.576,10.736c1.976,3.952,6.776,5.544,10.736,3.576l39.744-19.872l1.44,4.312    c1.096,3.272-0.024,6.856-2.792,8.928L107.2,217.6c-1.696,1.272-2.824,3.168-3.12,5.264c-0.304,2.104,0.248,4.232,1.52,5.928    L144,280h-43.056L56.32,190.752L70.776,104H72c4.408,0,8,3.584,8,8v48C80,161.24,80.288,162.472,80.84,163.576z M375.92,222.872    c-0.296-2.104-1.424-4-3.12-5.272l-22.776-17.08c-2.76-2.072-3.88-5.656-2.792-8.928l1.44-4.312l39.744,19.872    c3.968,1.968,8.76,0.376,10.736-3.576c1.976-3.952,0.376-8.76-3.576-10.736l-8.84-4.424l12.424-24.84    c0.552-1.104,0.84-2.336,0.84-3.576v-48c0-4.416,3.592-8,8-8h1.224l14.456,86.752L379.056,280H336l38.4-51.2    C375.672,227.104,376.224,224.968,375.92,222.872z M464,280h-67.056l42.208-84.424c0.752-1.512,1.008-3.224,0.736-4.888l-16-96    C423.248,90.832,419.912,88,416,88h-8c-13.232,0-24,10.768-24,24v46.112l-11.576,23.16l-24.84-12.424    c-2.08-1.032-4.504-1.128-6.64-0.232c-2.144,0.888-3.792,2.664-4.528,4.856l-4.352,13.064c-3.272,9.816,0.088,20.576,8.368,26.792    L356.8,225.6L316,280H164l-40.8-54.4l16.376-12.28c8.28-6.208,11.64-16.976,8.368-26.792l-4.352-13.064    c-0.736-2.192-2.384-3.968-4.528-4.856c-2.136-0.888-4.568-0.808-6.64,0.232l-24.84,12.424L96,158.112V112    c0-13.232-10.768-24-24-24h-8c-3.912,0-7.248,2.832-7.888,6.688l-16,96c-0.28,1.664-0.016,3.376,0.736,4.888L83.056,280H16V24    c0-4.416,3.592-8,8-8h432c4.408,0,8,3.584,8,8V280z" fill="#28c5bc"/>
	</g>
</g>
<g>
	<g>
		<path d="M256,312h-32c-4.416,0-8,3.576-8,8s3.584,8,8,8h32c4.416,0,8-3.576,8-8S260.416,312,256,312z" fill="#28c5bc"/>
	</g>
</g>
<g>
	<g>
		<path d="M224,112c-4.416,0-8,3.576-8,8v8c0,4.424,3.584,8,8,8s8-3.576,8-8v-8C232,115.576,228.416,112,224,112z" fill="#28c5bc"/>
	</g>
</g>
<g>
	<g>
		<path d="M310.096,36.176c-7.48-4.28-19.312-4.44-32.888-4.336l-4.08,0.04c-7.864,0-14.912,1.448-21.376,4.064    c-4.864,1.536-9.088,3.48-12.768,5.728c-0.088-0.056-0.176-0.128-0.264-0.184c-1.752-1.232-3.552-2.304-5.296-3.24l-0.992-0.528    c-0.392-0.2-0.784-0.4-1.176-0.584c-0.848-0.904-1.912-1.624-3.152-2.072c-2.216-0.792-5.216-1.448-7.512-1.928    c-0.52-0.112-0.992-0.2-1.368-0.288c-1.28-0.552-2.8-0.776-4.24-0.608c-1.88-0.16-4.016-0.192-6.36-0.224    c-0.424-0.064-0.832-0.096-1.184-0.096l-3.392-0.024c-3.024-0.048-6.384-0.08-13.024,0.144    c-15.896,1.968-16.048,2.024-17.064,2.368c-1.584,0.544-3.032,1.168-3.856,1.672c-18.528,9.512-27.528,29.176-27.528,60.12    c0,18.248,7.096,41.504,17.016,56.168c1.984,10.504,11.224,58.544,13.672,70.632c1.616,7.952,7.528,14.184,15.136,16.168    c1.816,0.56,3.528,0.832,5.232,0.832c0.144,0,0.312,0,0.456,0h15.664c0.056,0,0.12,0,0.192,0c1.824,0,3.392-0.216,4.848-0.648    c7.272-1.784,13.128-7.312,15.376-14.736L240,186.752l9.92,38.184c2.16,7.112,8.016,12.632,14.968,14.328    c1.712,0.496,3.32,0.736,4.928,0.736c0.136,0,0.304,0,0.432,0h15.664c0.144,0,0.304,0,0.456,0c1.696,0,3.408-0.272,4.928-0.744    c7.904-2.072,13.824-8.304,15.44-16.256c2.848-14.072,8.416-41.888,13.696-70.656c9.912-14.656,17-37.904,17-56.152    C337.432,65.36,328.488,45.728,310.096,36.176z M306.384,144.504c-0.696,0.968-1.168,2.08-1.384,3.248l-0.24,1.288    c-5.272,28.752-10.848,56.672-13.704,70.76c-0.392,1.936-1.856,3.464-3.824,3.976c-0.088,0.024-0.6,0.144-0.8,0.192    c-0.296-0.024-0.56-0.016-0.872,0.016L270.752,224c-0.328-0.032-0.664-0.032-1.008-0.032c-0.184-0.048-0.736-0.176-0.736-0.176    c-1.832-0.448-3.256-1.768-3.696-3.2l-11.16-42.992c-1.696-6.552-7.392-10.952-14.16-10.952s-12.456,4.4-14.16,10.952    l-11.064,42.672c-0.536,1.76-1.952,3.08-3.848,3.752c-0.288-0.032-0.592-0.048-0.904-0.048c-0.192,0-0.392,0-0.584,0.016h-15.008    c-0.312-0.032-0.592-0.04-0.872-0.016c-0.208-0.056-0.792-0.192-0.792-0.192c-1.968-0.512-3.424-2.04-3.824-3.976    c-2.632-12.96-13.096-67.408-13.952-72.064c-0.208-1.168-0.68-2.272-1.376-3.232c-8.44-11.712-15.048-32.936-15.048-48.32    c0.008-24.696,5.992-39.28,19.256-46.104c0.216-0.128,0.464-0.232,0.728-0.336c2.856-0.4,13.688-1.744,13.696-1.776    c5.576-0.152,8.76-0.112,11.616-0.08l3.048,0.024c0.376,0.048,0.736,0.072,1.064,0.08c0,0,4.704,0.056,6.648,0.128    c0.992,0.312,1.936,0.504,2.672,0.664c0.616,0.136,1.304,0.272,2,0.424c0.576,0.424,1.224,0.768,1.92,1.016    c1.336,0.496,2.64,1.072,4.536,2.064c0.248,0.136,0.52,0.336,0.776,0.472C218.496,63.248,216,76.168,216,88c0,4.424,3.584,8,8,8    s8-3.576,8-8c0-8.984,1.448-19.552,9.16-27.6c1.496-0.224,2.968-0.744,4.168-1.824c0.744-0.664,1.504-1.312,2.808-2.304    c0.712-0.536,1.424-1.072,2.344-1.688c1.632-1.144,3.312-2.136,5.048-2.984c6.056-2.112,13.56-3.472,23.064-3.68    c0.152,0,0.272-0.08,0.416-0.096c7.064-0.072,19.256-0.064,23.168,2.256c0.136,0.08,0.272,0.16,0.416,0.224    c12.856,6.6,18.84,21.176,18.84,45.88C321.432,111.568,314.816,132.792,306.384,144.504z" fill="#28c5bc"/>
	</g>
</g>
<g>
	<g>
		<path d="M240,384c-4.416,0-8,3.576-8,8v8c0,4.424,3.584,8,8,8s8-3.576,8-8v-8C248,387.576,244.416,384,240,384z" fill="#28c5bc"/>
	</g>
</g>
<g>
</g>
<g>
</g>
<g>
</g>
<g>
</g>
<g>
</g>
<g>
</g>
<g>
</g>
<g>
</g>
<g>
</g>
<g>
</g>
<g>
</g>
<g>
</g>
<g>
</g>
<g>
</g>
<g>
</g>
</svg>
