<?xml version="1.0" encoding="iso-8859-1"?>
<!-- Generator: Adobe Illustrator 19.0.0, SVG Export Plug-In . SVG Version: 6.00 Build 0)  -->
<svg xmlns="http://www.w3.org/2000/svg" xmlns:xlink="http://www.w3.org/1999/xlink" version="1.1" id="Capa_1" x="0px" y="0px" viewBox="0 0 480.206 480.206" style="enable-background:new 0 0 480.206 480.206;" xml:space="preserve" width="512px" height="512px">
<g>
	<g>
		<path d="M404.167,9.318c-16.784-9.912-49.904-9.504-74.08-9.2c-3.616,0.048-6.984,0.088-9.984,0.088    c-27.472,0-49.84,6.72-70.184,21.016c-0.344,0.224-0.696,0.488-1.04,0.72c-0.768,0.528-1.528,1.04-2.28,1.584    c-1.192,0.864-2.44,1.792-3.832,2.832l-1.056,0.792c-0.536,0.416-1.072,0.84-1.6,1.272c-3.224-2.624-6.424-4.968-9.616-7.064    c-20.552-14.432-42.92-21.152-70.392-21.152c-3,0-6.368-0.04-9.992-0.088c-24.2-0.312-57.304-0.712-73.664,8.968    C35.839,29.95,16.103,74.142,16.103,144.206c0,42.184,17.32,98.16,40.448,131.184c12.888,70.312,26.48,138.352,33.472,172.816    c3.032,14.968,14.176,26.68,28.744,30.496c3.16,0.968,6.368,1.328,9.52,1.456c0.32,0.024,0.696,0.048,0.928,0.048h37.84    c0.464,0,0.8,0,1.048,0c2.744,0,5.6-0.432,8.432-1.24c13.688-3.344,24.72-13.736,28.88-27.44l26.944-103.824    c1.448-5.56,6.296-5.992,7.744-5.992s6.304,0.44,7.744,5.992l27.032,104.152c4.064,13.376,15.104,23.784,28.504,27.056    c2.96,0.84,5.68,1.296,8.864,1.296h0.008c0.312,0,0.672,0,0.896,0h37.84c0.224,0,0.448-0.008,0.592-0.016    c0.192,0.008,0.376,0.016,0.52,0.016c2.984,0,6.032-0.496,9.008-1.416c14.896-3.896,26.032-15.616,29.072-30.584    c6.992-34.464,20.584-102.496,33.472-172.816c23.128-33.024,40.448-89,40.448-131.184C464.103,74.142,444.367,29.95,404.167,9.318    z M409.615,267.526c-0.696,0.968-1.168,2.072-1.384,3.24c-12.952,70.8-26.688,139.568-33.728,174.264    c-1.816,8.936-8.496,15.944-17.768,18.376c-1.664,0.512-3.056,0.768-4.352,0.8c-0.304-0.008-0.72-0.016-1.392,0l-37.208,0.032    c-0.336-0.04-0.904-0.08-1.288-0.08c-0.224,0-0.448,0.016-0.72,0.04c-1.176-0.04-2.488-0.272-4.296-0.776    c-8.232-2.016-14.856-8.232-17.2-15.912l-26.944-103.832c-2.792-10.744-12.128-17.968-23.232-17.968s-20.44,7.224-23.232,17.976    L190.015,447.19c-2.432,8-9.056,14.216-17.576,16.312c-1.584,0.448-2.888,0.672-4.088,0.704c-0.296-0.008-0.696-0.016-1.304,0    l-37.168,0.032c-0.352-0.04-0.944-0.088-1.344-0.088c-0.224,0-0.48,0.016-0.768,0.048c-1.288-0.04-2.688-0.304-4.632-0.888    c-8.952-2.344-15.632-9.344-17.448-18.288c-7.032-34.688-20.776-103.456-33.728-174.264c-0.216-1.168-0.688-2.272-1.384-3.24    c-21.928-30.416-38.472-83.432-38.472-123.312c0-64.368,16.416-102.784,52.064-121.112c12.928-7.632,44.68-7.232,65.744-6.976    c3.696,0.048,7.128,0.088,10.192,0.088c24.016,0,43.464,5.8,61.4,18.384c2.32,1.52,4.6,3.176,6.88,4.96    c-22.656,24.28-36.28,58.104-36.28,96.656c0,4.416,3.584,8,8,8s8-3.584,8-8c0-68.408,48.152-120,112-120    c3.064,0,6.496-0.04,10.184-0.088c21.016-0.28,52.816-0.656,66.16,7.208c35.24,18.096,51.656,56.512,51.656,120.88    C448.103,184.086,431.559,237.102,409.615,267.526z" fill="#28c5bc"/>
	</g>
</g>
<g>
	<g>
		<path d="M200.103,176.206c-4.416,0-8,3.584-8,8v24c0,4.416,3.584,8,8,8s8-3.584,8-8v-24    C208.103,179.79,204.519,176.206,200.103,176.206z" fill="#28c5bc"/>
	</g>
</g>
<g>
	<g>
		<path d="M411.943,129.19l-23.808-13.016l-13.016-23.808c-2.808-5.128-11.232-5.128-14.04,0l-13.016,23.808l-23.808,13.016    c-2.552,1.4-4.152,4.088-4.152,7.016s1.6,5.616,4.16,7.016l23.808,13.016l13.016,23.808c1.4,2.56,4.088,4.16,7.016,4.16    c2.928,0,5.616-1.6,7.016-4.16l13.016-23.808l23.808-13.016c2.56-1.4,4.16-4.088,4.16-7.016S414.503,130.59,411.943,129.19z     M378.407,143.326c-1.336,0.736-2.448,1.84-3.176,3.176l-7.128,13.032l-7.12-13.024c-0.736-1.336-1.84-2.448-3.176-3.176    l-13.032-7.128l13.024-7.12c1.336-0.736,2.448-1.84,3.176-3.176l7.128-13.032l7.12,13.024c0.736,1.336,1.84,2.448,3.176,3.176    l13.032,7.128L378.407,143.326z" fill="#28c5bc"/>
	</g>
</g>
<g>
</g>
<g>
</g>
<g>
</g>
<g>
</g>
<g>
</g>
<g>
</g>
<g>
</g>
<g>
</g>
<g>
</g>
<g>
</g>
<g>
</g>
<g>
</g>
<g>
</g>
<g>
</g>
<g>
</g>
</svg>
