<?xml version="1.0" encoding="iso-8859-1"?>
<!-- Generator: Adobe Illustrator 19.0.0, SVG Export Plug-In . SVG Version: 6.00 Build 0)  -->
<svg xmlns="http://www.w3.org/2000/svg" xmlns:xlink="http://www.w3.org/1999/xlink" version="1.1" id="Capa_1" x="0px" y="0px" viewBox="0 0 480 480" style="enable-background:new 0 0 480 480;" xml:space="preserve" width="512px" height="512px">
<g>
	<g>
		<path d="M236,40h-48c-4.4,0-8,3.6-8,8s3.6,8,8,8h48c4.4,0,8-3.6,8-8S240.4,40,236,40z" fill="#28c5bc"/>
	</g>
</g>
<g>
	<g>
		<path d="M364,248c-35.3,0-64,28.7-64,64s28.7,64,64,64s64-28.7,64-64S399.3,248,364,248z M364,360c-26.5,0-48-21.5-48-48    s21.5-48,48-48s48,21.5,48,48S390.5,360,364,360z" fill="#28c5bc"/>
	</g>
</g>
<g>
	<g>
		<path d="M392.8,289.6c-3.5-2.6-8.6-1.9-11.2,1.6l-18.5,24.6l-9.5-9.5c-3.1-3.1-8.2-3.1-11.3,0c-3.1,3.1-3.1,8.2,0,11.3l16,16    c1.5,1.5,3.6,2.4,5.7,2.4c0.2,0,0.4,0,0.6,0c2.3-0.2,4.4-1.3,5.8-3.2l24-32C397.1,297.3,396.3,292.3,392.8,289.6z" fill="#28c5bc"/>
	</g>
</g>
<g>
	<g>
		<path d="M364,232c4.4,0,8-3.6,8-8V80c0-13.2-10.8-24-24-24h-24V24c0-13.2-10.8-24-24-24H124c-13.2,0-24,10.8-24,24v32H76    c-13.2,0-24,10.8-24,24v376c0,13.2,10.8,24,24,24h272c13.2,0,24-10.8,24-24v-64c0-4.4-3.6-8-8-8c-4.4,0-8,3.6-8,8v64    c0,4.4-3.6,8-8,8H76c-4.4,0-8-3.6-8-8V80c0-4.4,3.6-8,8-8h24v16c0,4.4,3.6,8,8,8h208c4.4,0,8-3.6,8-8V72h24c4.4,0,8,3.6,8,8v144    C356,228.4,359.6,232,364,232z M308,80H116V24c0-4.4,3.6-8,8-8h176c4.4,0,8,3.6,8,8V80z" fill="#28c5bc"/>
	</g>
</g>
<g>
	<g>
		<path d="M204,352h-96c-4.4,0-8,3.6-8,8c0,4.4,3.6,8,8,8h96c4.4,0,8-3.6,8-8C212,355.6,208.4,352,204,352z" fill="#28c5bc"/>
	</g>
</g>
<g>
	<g>
		<path d="M268,352h-32c-4.4,0-8,3.6-8,8c0,4.4,3.6,8,8,8h32c4.4,0,8-3.6,8-8C276,355.6,272.4,352,268,352z" fill="#28c5bc"/>
	</g>
</g>
<g>
	<g>
		<path d="M172,400h-64c-4.4,0-8,3.6-8,8c0,4.4,3.6,8,8,8h64c4.4,0,8-3.6,8-8C180,403.6,176.4,400,172,400z" fill="#28c5bc"/>
	</g>
</g>
<g>
	<g>
		<path d="M316,400H204c-4.4,0-8,3.6-8,8c0,4.4,3.6,8,8,8h112c4.4,0,8-3.6,8-8C324,403.6,320.4,400,316,400z" fill="#28c5bc"/>
	</g>
</g>
<g>
	<g>
		<path d="M204,200c-4.4,0-8,3.6-8,8v8c0,4.4,3.6,8,8,8c4.4,0,8-3.6,8-8v-8C212,203.6,208.4,200,204,200z" fill="#28c5bc"/>
	</g>
</g>
<g>
	<g>
		<path d="M290.1,124.2c-7.5-4.3-19.3-4.4-32.9-4.3h-4.1c-7.9,0-14.9,1.4-21.4,4.1c-4.9,1.5-9.1,3.5-12.8,5.7    c-0.1-0.1-0.2-0.1-0.3-0.2c-41.8-21.7-67.8-5.9-68.6-5.4c-18.2,10.2-27.5,29.2-27.5,60.1c0,18.2,7.1,41.5,17,56.2    c2,10.5,11.2,58.6,13.7,70.6c1.6,8,7.5,14.2,15.1,16.2c1.8,0.5,3.5,0.8,5.2,0.8c0.1,0,0.3,0,0.5,0h15.7c0.1,0,0.1,0,0.2,0    c1.8,0,3.4-0.2,4.8-0.6c7.3-1.8,13.1-7.3,15.4-14.7l9.8-37.9l9.9,38.2c2.2,7.1,8,12.6,15,14.3c1.7,0.5,3.3,0.7,4.9,0.7    c0.1,0,0.3,0,0.4,0h15.7c0.1,0,0.3,0,0.5,0c1.7,0,3.4-0.3,4.9-0.7c7.9-2.1,13.8-8.3,15.4-16.3c2.8-14.1,8.4-41.9,13.7-70.7    c10-14.6,17.1-37.9,17.1-56.1C317.4,153.4,308.5,133.7,290.1,124.2z M286.4,232.5c-0.7,1-1.2,2.1-1.4,3.2l-0.2,1.3    c-5.3,28.8-10.8,56.7-13.7,70.8c-0.4,1.9-1.9,3.5-3.8,4c-0.1,0-0.6,0.1-0.8,0.2c-0.3,0-0.6,0-0.9,0h-14.8c-0.3,0-0.7,0-1,0    c-0.2,0-0.7-0.2-0.7-0.2c-1.8-0.4-3.3-1.8-3.7-3.2l-11.2-43c-1.7-6.6-7.4-11-14.2-11s-12.5,4.4-14.2,11l-11.1,42.7    c-0.5,1.8-2,3.1-3.8,3.8c-0.3,0-0.6,0-0.9,0c-0.2,0-0.4,0-0.6,0h-15c-0.3,0-0.6,0-0.9,0c-0.2-0.1-0.8-0.2-0.8-0.2    c-2-0.5-3.4-2-3.8-4c-2.6-13-13.1-67.4-14-72.1c-0.2-1.2-0.7-2.3-1.4-3.2c-8.4-11.7-15-32.9-15-48.3c0-24.7,6-39.3,19.2-46.1    c0.2-0.1,21.7-11.1,48.7,2.7c-8,10.5-10.5,23.4-10.5,35.2c0,4.4,3.6,8,8,8c4.4,0,8-3.6,8-8c0-9,1.4-19.6,9.2-27.6    c5.2-5,12.6-8,14.4-8.8c10.2-4.5,23.3-3.8,23.5-3.8c7.1-0.1,19.2-0.1,23.2,2.3c0.1,0.1,0.3,0.2,0.4,0.2    c12.9,6.6,18.8,21.2,18.8,45.9C301.4,199.6,294.8,220.8,286.4,232.5z" fill="#28c5bc"/>
	</g>
</g>
<g>
</g>
<g>
</g>
<g>
</g>
<g>
</g>
<g>
</g>
<g>
</g>
<g>
</g>
<g>
</g>
<g>
</g>
<g>
</g>
<g>
</g>
<g>
</g>
<g>
</g>
<g>
</g>
<g>
</g>
</svg>
