<?xml version="1.0" encoding="iso-8859-1"?>
<!-- Generator: Adobe Illustrator 19.0.0, SVG Export Plug-In . SVG Version: 6.00 Build 0)  -->
<svg xmlns="http://www.w3.org/2000/svg" xmlns:xlink="http://www.w3.org/1999/xlink" version="1.1" id="Capa_1" x="0px" y="0px" viewBox="0 0 480.208 480.208" style="enable-background:new 0 0 480.208 480.208;" xml:space="preserve" width="512px" height="512px">
<g>
	<g>
		<path d="M125.952,105.376c-12.712-8.12-41.28-9.168-64.792-9.168c-18.416,0-32.896,2.392-47.992,14.16    c-1.472,1.08-3.024,2.856-7.576,8.416c-1.368,1.672-2.6,3.192-3.136,3.76c-1.512,1.496-2.352,3.536-2.352,5.664v222.208    c0,1.168,0.256,2.312,0.736,3.352c1.776,4.672,18.16,54.68,28.768,87.224c2.984,10.888,11.216,19.384,21.176,22.072    c2.44,0.768,4.696,1.144,6.896,1.144c0.224,0.008,0.512,0,0.72,0h26.064c0.216,0,0.528,0,0.76,0c2.376,0,4.784-0.424,7.048-1.2    c11.136-3.24,19.432-12.776,21.648-24.912c3.856-21.08,8.992-52.552,14.944-89.008l6.872-41.968    c17.96-28.712,24.368-71.04,24.368-99.176C160.104,165.288,160.104,124.992,125.952,105.376z M121.392,299.848    c-0.6,0.92-1,1.968-1.176,3.056l-7.152,43.608c-5.928,36.368-11.048,67.776-14.88,88.704c-1.128,6.128-5.104,10.888-10.72,12.528    c-0.784,0.272-1.416,0.416-1.96,0.448c-0.232-0.016-0.472-0.024-0.688-0.024c-0.232,0-0.456,0.008-0.72,0.04H58.752    c-0.488-0.024-0.888-0.04-1.328-0.008c-0.504-0.04-1.136-0.176-2.128-0.488c-4.832-1.312-8.76-5.504-10.352-11.312    c-19.744-60.592-26.208-80.256-28.832-87.184v-218.04c0.576-0.688,1.208-1.456,1.864-2.256c1.912-2.336,4.064-5.024,4.832-5.784    c11.792-9.184,22.568-10.928,38.352-10.928c38.048,0,51.584,3.64,56.248,6.696c0.144,0.088,0.28,0.176,0.424,0.256    c26.272,14.968,26.272,47.544,26.272,89.048C144.104,236.432,137.08,275.712,121.392,299.848z" fill="#28c5bc"/>
	</g>
</g>
<g>
	<g>
		<path d="M434.544,6.776c-12.176-7.192-35.416-6.928-52.4-6.688c-2.488,0.032-4.8,0.056-6.856,0.056    c-19.488,0-35.368,4.784-49.776,14.904c-1.616,1.064-3.16,2.208-4.968,3.576l-0.416,0.312c-1.76-1.36-3.504-2.608-5.216-3.744    C300.296,4.928,284.416,0.144,264.928,0.144c-2.064,0-4.376-0.024-6.856-0.056c-16.984-0.216-40.216-0.496-51.984,6.464    c-29.656,15.232-45.984,49.912-45.984,97.656c0,29.864,15.48,65.032,31.128,87.288c0.96,3.904,2.696,8.296,4.52,12.904    c1.912,4.84,3.896,9.84,4.472,13.16c0.656,3.84,3.984,6.648,7.88,6.648h3.056l13.792,27.576c1.352,2.712,4.12,4.424,7.152,4.424    h10.368l9.128,25.568c-2.064,1.448-3.496,3.72-3.496,6.432c0,4.416,3.576,8,8,8h0.648l5.824,16.304    c-3.656,0.736-6.472,3.816-6.472,7.696c0,4.416,3.576,8,8,8h4.08l8.6,24.072c3.4,9.528,12.48,15.928,22.592,15.928h41.456    c10.12,0,19.192-6.4,22.592-15.928l8.6-24.072h4.08c4.424,0,8-3.584,8-8c0-3.88-2.808-6.96-6.48-7.696l5.832-16.304h0.648    c4.424,0,8-3.584,8-8c0-2.712-1.432-4.992-3.496-6.432l9.128-25.568h10.368c3.032,0,5.8-1.712,7.16-4.424l13.784-27.576h3.056    c3.896,0,7.224-2.808,7.88-6.656c0.568-3.312,2.552-8.32,4.472-13.16c1.832-4.608,3.56-9,4.52-12.904    c15.648-22.248,31.128-57.416,31.128-87.28C480.104,56.464,463.776,21.784,434.544,6.776z M348.36,346.896    c-1.128,3.176-4.16,5.312-7.528,5.312h-41.456c-3.368,0-6.4-2.136-7.528-5.312l-6.68-18.688h69.864L348.36,346.896z     M360.752,312.208h-81.296l-5.712-16h92.728L360.752,312.208z M372.184,280.208h-104.16l-8.568-24h121.296L372.184,280.208z     M403.16,240.208h-11.056h-144h-11.056l-8-16H411.16L403.16,240.208z M435.016,183.512c-0.688,0.968-1.168,2.064-1.376,3.232    c-0.512,2.8-2.32,7.352-4.064,11.76c-1.28,3.232-2.592,6.536-3.624,9.696h-1.848h-208h-1.848    c-1.032-3.168-2.344-6.464-3.624-9.696c-1.744-4.408-3.544-8.96-4.064-11.76c-0.208-1.168-0.688-2.272-1.376-3.232    c-17.128-23.752-29.088-56.36-29.088-79.304c0-24,4.84-66.76,37.704-83.656c8.312-4.912,30.68-4.624,44.064-4.472    c2.552,0.032,4.928,0.064,7.056,0.064c16.032,0,28.992,3.856,40.984,12.28c1.256,0.824,2.496,1.736,3.736,2.672    c-13.552,16.752-21.544,39.248-21.544,65.112c0,4.416,3.576,8,8,8s8-3.584,8-8c0-43.696,25.176-75.128,62.232-79.488    c2.904-0.296,5.824-0.568,8.952-0.568c2.128,0,4.496-0.024,7.056-0.064c13.376-0.168,35.744-0.44,44.48,4.696    c32.44,16.664,37.28,59.424,37.28,83.424C464.104,127.152,452.144,159.76,435.016,183.512z" fill="#28c5bc"/>
	</g>
</g>
<g>
	<g>
		<path d="M296.104,120.208c-4.424,0-8,3.584-8,8v8c0,4.416,3.576,8,8,8s8-3.584,8-8v-8    C304.104,123.792,300.528,120.208,296.104,120.208z" fill="#28c5bc"/>
	</g>
</g>
<g>
	<g>
		<path d="M456.104,320.208h-32c-3.032,0-5.8,1.712-7.16,4.424l-13.784,27.576h-11.056c-3.384,0-6.4,2.128-7.528,5.312    l-23.824,66.688h-81.296l-23.824-66.688c-1.128-3.184-4.144-5.312-7.528-5.312h-11.056l-13.792-27.576    c-1.352-2.712-4.12-4.424-7.152-4.424h-208c-4.424,0-8,3.584-8,8v144c0,4.416,3.576,8,8,8h280h64h120c4.424,0,8-3.584,8-8v-128    C480.104,330.976,469.336,320.208,456.104,320.208z M16.104,464.208v-128H211.16l13.792,27.576    c1.352,2.712,4.12,4.424,7.152,4.424h10.36l8.576,24h-18.936c-4.424,0-8,3.584-8,8c0,4.416,3.576,8,8,8h24    c0.216,0,0.392-0.104,0.6-0.12l5.76,16.12h-14.36c-4.424,0-8,3.584-8,8c0,4.416,3.576,8,8,8h18.584l9.6,24H16.104z     M346.456,464.208h-52.712l-8.576-24h69.864L346.456,464.208z M464.104,464.208H363.92l9.6-24h18.584c4.424,0,8-3.584,8-8    c0-4.416-3.576-8-8-8h-14.36l5.76-16.12c0.208,0.016,0.384,0.12,0.6,0.12h32c4.424,0,8-3.584,8-8c0-4.416-3.576-8-8-8h-26.928    l8.576-24h10.352c3.032,0,5.8-1.712,7.16-4.424l13.784-27.576h27.056c4.416,0,8,3.592,8,8V464.208z" fill="#28c5bc"/>
	</g>
</g>
<g>
</g>
<g>
</g>
<g>
</g>
<g>
</g>
<g>
</g>
<g>
</g>
<g>
</g>
<g>
</g>
<g>
</g>
<g>
</g>
<g>
</g>
<g>
</g>
<g>
</g>
<g>
</g>
<g>
</g>
</svg>
