<?xml version="1.0" encoding="iso-8859-1"?>
<!-- Generator: Adobe Illustrator 19.0.0, SVG Export Plug-In . SVG Version: 6.00 Build 0)  -->
<svg xmlns="http://www.w3.org/2000/svg" xmlns:xlink="http://www.w3.org/1999/xlink" version="1.1" id="Capa_1" x="0px" y="0px" viewBox="0 0 480.206 480.206" style="enable-background:new 0 0 480.206 480.206;" xml:space="preserve" width="512px" height="512px">
<g>
	<g>
		<path d="M404.167,9.318c-16.784-9.912-49.896-9.504-74.08-9.2c-3.616,0.048-6.984,0.088-9.984,0.088    c-27.472,0-49.84,6.72-70.184,21.016c-0.344,0.224-0.696,0.488-1.04,0.72c-0.768,0.528-1.528,1.04-2.28,1.584    c-1.192,0.864-2.44,1.792-3.832,2.832l-1.056,0.792c-0.536,0.416-1.072,0.84-1.6,1.272c-3.224-2.624-6.424-4.968-9.616-7.064    c-20.552-14.432-42.92-21.152-70.392-21.152c-3,0-6.368-0.04-9.992-0.088c-24.208-0.312-57.304-0.712-73.664,8.968    C35.839,29.95,16.103,74.142,16.103,144.206c0,5.272,0.272,10.76,0.792,16.392c3.632,39.424,19.416,85.896,39.664,114.792    c12.888,70.312,26.48,138.352,33.472,172.816c3.032,14.968,14.176,26.68,28.744,30.496c3.16,0.968,6.2,1.328,9.52,1.456    c0.312,0.024,0.688,0.048,0.92,0.048h37.84c0.464,0,0.8,0,1.048,0c2.744,0,5.6-0.432,8.432-1.24    c13.688-3.344,24.72-13.736,28.88-27.44l26.944-103.824c1.448-5.56,6.296-5.992,7.744-5.992s6.304,0.44,7.744,5.992    l27.032,104.152c4.064,13.376,15.104,23.784,28.504,27.056c2.96,0.84,5.68,1.296,8.864,1.296h0.008c0.312,0,0.672,0,0.896,0h37.84    c0.224,0,0.448-0.008,0.592-0.016c0.192,0.008,0.376,0.016,0.52,0.016c2.984,0,6.032-0.496,9.008-1.416    c14.896-3.896,26.032-15.616,29.072-30.584c6.992-34.464,20.584-102.496,33.472-172.816c6.632-9.472,12.76-20.864,18.168-33.24    c1.664-3.808,3.28-7.672,4.792-11.64c1.656-4.368,3.192-8.84,4.656-13.344c0.96-2.96,1.872-5.944,2.744-8.944    c1.688-5.84,3.192-11.728,4.488-17.6c0.496-2.256,0.968-4.496,1.4-6.744c0.88-4.512,1.64-9,2.248-13.424    c0.456-3.32,0.864-6.624,1.16-9.864c0.52-5.624,0.792-11.112,0.792-16.384C464.103,74.142,444.367,29.95,404.167,9.318z     M374.503,445.03c-1.816,8.936-8.496,15.944-17.768,18.376c-1.664,0.512-3.056,0.768-4.352,0.8c-0.304-0.008-0.72-0.016-1.392,0    l-37.208,0.032c-0.336-0.04-0.904-0.08-1.288-0.08c-0.24,0-0.448,0.016-0.72,0.04c-1.176-0.04-2.488-0.272-4.296-0.776    c-8.232-2.016-14.856-8.232-17.2-15.912l-26.944-103.832c-2.792-10.744-12.128-17.968-23.232-17.968s-20.44,7.224-23.232,17.976    L190.015,447.19c-2.432,8-9.056,14.216-17.576,16.312c-1.584,0.448-2.888,0.672-4.088,0.704c-0.304-0.008-0.704-0.016-1.304,0    l-37.168,0.032c-0.352-0.04-0.944-0.088-1.344-0.088c-0.24,0-0.48,0.016-0.768,0.048c-1.288-0.04-2.688-0.304-4.632-0.888    c-8.952-2.344-15.632-9.344-17.448-18.288c-5.648-27.848-15.616-77.656-26.024-132.848c0.136,0,0.256,0.024,0.4,0.024    c19.312,0,29.48-10.168,37.648-18.344c7.632-7.624,13.656-13.648,26.336-13.648s18.712,6.024,26.336,13.656    c8.168,8.176,18.344,18.344,37.648,18.344c19.32,0,29.496-10.168,37.664-18.344c7.632-7.632,13.664-13.656,26.352-13.656    c12.68,0,18.712,6.024,26.336,13.656c8.168,8.176,18.344,18.344,37.648,18.344c19.328,0,29.504-10.168,37.672-18.344    c7.64-7.632,13.672-13.656,26.368-13.656c2.24,0,4.336,0.2,6.32,0.6C393.991,347.998,381.207,411.974,374.503,445.03z     M447.911,151.75c-0.04,0.8-0.12,1.632-0.168,2.44c-0.112,1.768-0.216,3.536-0.384,5.344c-0.096,1.032-0.232,2.088-0.352,3.128    c-0.176,1.616-0.336,3.224-0.552,4.864c-0.144,1.12-0.336,2.256-0.504,3.384c-0.232,1.584-0.456,3.16-0.728,4.752    c-0.2,1.184-0.44,2.384-0.664,3.576c-0.288,1.552-0.56,3.104-0.88,4.664c-0.248,1.224-0.544,2.456-0.816,3.688    c-0.336,1.536-0.664,3.064-1.032,4.592c-0.304,1.256-0.64,2.504-0.96,3.76c-0.384,1.504-0.76,3.008-1.176,4.512    c-0.344,1.256-0.72,2.512-1.088,3.768c-0.432,1.496-0.856,2.984-1.32,4.472c-0.384,1.24-0.792,2.472-1.192,3.704    c-0.48,1.48-0.952,2.952-1.456,4.416c-0.424,1.232-0.872,2.448-1.32,3.672c-0.52,1.432-1.032,2.872-1.568,4.288    c-0.464,1.216-0.952,2.408-1.432,3.608c-0.56,1.392-1.112,2.792-1.688,4.16c-0.496,1.176-1.008,2.328-1.52,3.48    c-0.592,1.352-1.184,2.704-1.8,4.024c-0.52,1.128-1.064,2.232-1.6,3.336c-0.632,1.296-1.256,2.6-1.904,3.864    c-0.552,1.08-1.12,2.128-1.688,3.184c-0.656,1.232-1.32,2.456-1.992,3.648c-0.576,1.024-1.168,2.016-1.76,3.008    c-0.688,1.16-1.384,2.32-2.088,3.44c-0.6,0.952-1.208,1.864-1.808,2.776c-0.48,0.72-0.96,1.424-1.44,2.12    c-3.456-0.808-7.088-1.216-10.96-1.216c-19.32,0-29.496,10.168-37.672,18.336c-7.632,7.64-13.664,13.664-26.368,13.664    c-12.68,0-18.704-6.024-26.336-13.656c-8.168-8.176-18.336-18.344-37.648-18.344c-19.32,0-29.488,10.168-37.664,18.344    c-7.632,7.632-13.656,13.656-26.352,13.656c-12.68,0-18.704-6.024-26.336-13.656c-8.168-8.176-18.336-18.344-37.648-18.344    c-19.304,0-29.472,10.168-37.64,18.344c-7.632,7.632-13.656,13.656-26.336,13.656c-1.176,0-2.32-0.056-3.424-0.168    c-0.008-0.04-0.016-0.088-0.024-0.136c-1.32-7.096-2.648-14.256-3.96-21.408c-0.232-1.248-0.456-2.488-0.688-3.736    c-0.216-1.168-0.688-2.272-1.384-3.24c-21.944-30.416-38.488-83.432-38.488-123.312c0-64.368,16.416-102.784,52.064-121.112    c12.928-7.632,44.688-7.232,65.744-6.976c3.696,0.048,7.128,0.088,10.192,0.088c24.016,0,43.464,5.8,61.4,18.384    c2.32,1.52,4.6,3.176,6.88,4.96c-22.656,24.28-36.28,58.104-36.28,96.656c0,4.416,3.584,8,8,8s8-3.584,8-8    c0-68.408,48.152-120,112-120c3.064,0,6.496-0.04,10.184-0.088c21.024-0.28,52.816-0.656,66.16,7.208    c35.24,18.096,51.656,56.512,51.656,120.88C448.103,146.67,448.039,149.19,447.911,151.75z" fill="#28c5bc"/>
	</g>
</g>
<g>
	<g>
		<path d="M200.103,176.206c-4.416,0-8,3.584-8,8v24c0,4.416,3.584,8,8,8s8-3.584,8-8v-24    C208.103,179.79,204.519,176.206,200.103,176.206z" fill="#28c5bc"/>
	</g>
</g>
<g>
	<g>
		<path d="M344.103,72.206h-16c-4.416,0-8,3.584-8,8s3.584,8,8,8h16c4.416,0,8-3.584,8-8S348.519,72.206,344.103,72.206z" fill="#28c5bc"/>
	</g>
</g>
<g>
	<g>
		<path d="M344.103,168.206h-16c-4.416,0-8,3.584-8,8s3.584,8,8,8h16c4.416,0,8-3.584,8-8S348.519,168.206,344.103,168.206z" fill="#28c5bc"/>
	</g>
</g>
<g>
	<g>
		<path d="M280.103,120.206h-16c-4.416,0-8,3.584-8,8c0,4.416,3.584,8,8,8h16c4.416,0,8-3.584,8-8    C288.103,123.79,284.519,120.206,280.103,120.206z" fill="#28c5bc"/>
	</g>
</g>
<g>
	<g>
		<path d="M408.103,120.206h-16c-4.416,0-8,3.584-8,8c0,4.416,3.584,8,8,8h16c4.416,0,8-3.584,8-8    C416.103,123.79,412.519,120.206,408.103,120.206z" fill="#28c5bc"/>
	</g>
</g>
<g>
	<g>
		<path d="M344.103,120.206h-16c-4.416,0-8,3.584-8,8c0,4.416,3.584,8,8,8h16c4.416,0,8-3.584,8-8    C352.103,123.79,348.519,120.206,344.103,120.206z" fill="#28c5bc"/>
	</g>
</g>
<g>
</g>
<g>
</g>
<g>
</g>
<g>
</g>
<g>
</g>
<g>
</g>
<g>
</g>
<g>
</g>
<g>
</g>
<g>
</g>
<g>
</g>
<g>
</g>
<g>
</g>
<g>
</g>
<g>
</g>
</svg>
