<?xml version="1.0" encoding="iso-8859-1"?>
<!-- Generator: Adobe Illustrator 19.0.0, SVG Export Plug-In . SVG Version: 6.00 Build 0)  -->
<svg xmlns="http://www.w3.org/2000/svg" xmlns:xlink="http://www.w3.org/1999/xlink" version="1.1" id="Capa_1" x="0px" y="0px" viewBox="0 0 480.191 480.191" style="enable-background:new 0 0 480.191 480.191;" xml:space="preserve" width="512px" height="512px">
<g>
	<g>
		<path d="M472.096,352.191H306.36c-18.992-11.68-46.504-28.696-57.04-35.432c4.808-23.56,9.816-48.832,14.328-73.376    c23.552-33.608,34.112-80.904,34.112-113.272c0-63.04-17.784-102.872-54.352-121.776c-15.312-8.872-44.96-8.496-66.64-8.24    c-3.24,0.04-6.256,0.08-8.944,0.08c-24.808,0-45.016,6.08-63.376,18.984c-2.016,1.32-3.952,2.768-6.408,4.608l-0.992,0.744    c-0.312,0.232-0.632,0.48-0.944,0.728c-2.744-2.2-5.456-4.176-8.152-5.944C69.384,6.247,49.176,0.167,24.368,0.167    c-2.752,0-5.856-0.04-9.2-0.08L8.16,0.023c-2.016,0.08-4.184,0.832-5.696,2.32c-1.52,1.496-2.368,3.544-2.368,5.68v416.168v48    c0,4.424,3.584,8,8,8h464c4.416,0,8-3.576,8-8v-112C480.096,355.767,476.512,352.191,472.096,352.191z M16.096,16.103    c2.984,0.032,5.768,0.064,8.272,0.064c21.36,0,38.64,5.16,54.6,16.36c2.256,1.48,4.488,3.136,6.712,4.904    c-18.224,20.008-29.584,46.304-29.584,74.76c0,4.424,3.584,8,8,8s8-3.576,8-8c0-46.36,38.576-96,96-96    c0.048,0,0.08-0.024,0.128-0.024c2.648,0,5.576-0.04,8.736-0.072c17.6-0.232,47.128-0.592,58.512,6.152    c0.136,0.08,0.272,0.16,0.416,0.224c31.296,16.072,45.864,50.272,45.864,107.64c0,36.384-12.92,78.744-32.152,105.408    c-0.696,0.96-1.168,2.072-1.384,3.24c-4.76,26.04-10.128,53.008-15.216,77.904c-0.36,0.728-0.688,1.48-0.824,2.328l-1,6.544    c-2.976,14.44-5.816,28.056-8.336,40.072c-2.752,13.16-5.176,24.736-7.064,34.048c-1.56,7.704-7.328,13.744-15.384,15.856    c-1.48,0.464-2.72,0.68-3.88,0.68h-34.184c-2.176,0-4.272-0.376-6.296-0.936c-6.776-1.904-12.208-7.048-14.112-13.272    l-12.504-51.976l-6.904-34.528c-0.912-4.568-3.152-8.568-6.2-11.768c-5.168-7.056-13.312-11.168-22.04-10.736    c-8.176,0.416-15.264,4.808-19.424,11.832c-2.528,3.008-4.368,6.632-5.176,10.68l-6.92,34.624l-12.36,51.408    c-2.096,6.896-7.8,12.256-15.184,14.072c-1.448,0.416-2.616,0.6-3.664,0.6H30.6H16.096V16.103z M464.096,464.191h-448v-32H30.6    h0.944h4.88c15.2,0,28.392-10.824,31.376-25.728l10.664-53.32l9.256-38.528c0.04-0.136,0.128-0.2,0.176-0.328    c1.432-1.28,3.28-2.096,5.32-2.096h5.768c1.832,0,3.528,0.656,4.896,1.72c0.2,0.328,0.448,0.552,0.624,0.912l9.256,38.472    l9.344,46.736c2.416,12.104,10.272,21.968,20.648,27.456c1.496,0.832,3.056,1.552,4.664,2.16c0.4,0.152,0.808,0.248,1.216,0.384    c0.984,0.336,1.968,0.696,2.984,0.944c2.864,0.816,5.496,1.216,8.032,1.216c0.336-0.008,0.704,0,0.944,0h0.736h33.184h1h0.24    c0.72,0,1.4-0.152,2.112-0.192c0.648-0.056,1.288-0.072,1.936-0.176c17.96-1.8,32.592-15.2,35.472-33.44l9.872-64.776    c9.688,6.304,26.072,16.376,53.768,33.392c1.256,0.784,2.704,1.192,4.184,1.192h160V464.191z" fill="#28c5bc"/>
	</g>
</g>
<g>
	<g>
		<path d="M64.096,136.191c-4.416,0-8,3.576-8,8v16c0,4.424,3.584,8,8,8s8-3.576,8-8v-16    C72.096,139.767,68.512,136.191,64.096,136.191z" fill="#28c5bc"/>
	</g>
</g>
<g>
	<g>
		<path d="M440.096,161.727v-57.536v-32v-64c0-4.424-3.584-8-8-8h-40c-4.416,0-8,3.576-8,8v64v32v32h-48c-4.416,0-8,3.576-8,8v32    c0,4.424,3.584,8,8,8h8v104h-8c-4.416,0-8,3.576-8,8v32c0,4.424,3.584,8,8,8h48c37.088,0,64-26.912,64-64v-80    C448.096,180.311,445.288,170.095,440.096,161.727z M400.096,16.191h24v48h-24V16.191z M400.096,80.191h24v16h-24V80.191z     M400.096,112.191h24v33.8c-6.736-4.112-14.776-7-24-8.512V112.191z M432.096,272.191c0,28.256-19.736,48-48,48h-40v-16h40    c18.544,0,32-13.464,32-32v-72c0-18.536-13.456-32-32-32h-40v-16h40c14.408,0,30.584,3.056,40,14.528v1.472h1.216    c4.208,5.824,6.784,13.624,6.784,24V272.191z M360.096,288.191v-104h24c9.72,0,16,6.28,16,16v72c0,9.72-6.28,16-16,16H360.096z" fill="#28c5bc"/>
	</g>
</g>
<g>
	<g>
		<path d="M243.936,105.175l-23.808-13.024l-13.016-23.8c-2.808-5.144-11.232-5.144-14.04,0l-13.016,23.8l-23.808,13.024    c-2.552,1.4-4.152,4.096-4.152,7.016s1.6,5.616,4.16,7.016l23.808,13.024l13.016,23.8c1.4,2.568,4.088,4.16,7.016,4.16    s5.616-1.592,7.016-4.168l13.016-23.8l23.808-13.024c2.56-1.392,4.16-4.088,4.16-7.008S246.496,106.575,243.936,105.175z     M210.4,119.319c-1.336,0.736-2.448,1.832-3.176,3.176l-7.128,13.024l-7.12-13.024c-0.736-1.344-1.84-2.448-3.176-3.176    l-13.032-7.128l13.024-7.128c1.336-0.736,2.448-1.832,3.176-3.176l7.128-13.024l7.12,13.024c0.736,1.344,1.84,2.448,3.176,3.176    l13.032,7.128L210.4,119.319z" fill="#28c5bc"/>
	</g>
</g>
<g>
</g>
<g>
</g>
<g>
</g>
<g>
</g>
<g>
</g>
<g>
</g>
<g>
</g>
<g>
</g>
<g>
</g>
<g>
</g>
<g>
</g>
<g>
</g>
<g>
</g>
<g>
</g>
<g>
</g>
</svg>
