<?xml version="1.0" encoding="iso-8859-1"?>
<!-- Generator: Adobe Illustrator 19.0.0, SVG Export Plug-In . SVG Version: 6.00 Build 0)  -->
<svg xmlns="http://www.w3.org/2000/svg" xmlns:xlink="http://www.w3.org/1999/xlink" version="1.1" id="Capa_1" x="0px" y="0px" viewBox="0 0 480.008 480.008" style="enable-background:new 0 0 480.008 480.008;" xml:space="preserve" width="512px" height="512px">
<g>
	<g>
		<path d="M472,264.004h-76.312c-10.496,0-19.688,6.72-22.864,16.72L349.96,352.54c-15.208,29.296-45.072,47.464-78.112,47.464    H204.92c-33.704,0-64.76-19.568-79.32-49.92l-18.656-68.4c-2.848-10.408-12.36-17.68-23.16-17.68H8c-4.424,0-8,3.584-8,8v200    c0,4.416,3.576,8,8,8h464c4.424,0,8-3.584,8-8v-200C480,267.588,476.424,264.004,472,264.004z M464,464.004H16v-184h67.784    c3.6,0,6.768,2.424,7.712,5.888l18.84,69.088c0.128,0.448,0.288,0.888,0.48,1.304c17.072,36.28,54.008,59.72,94.104,59.72h66.928    c39.304,0,74.808-21.752,92.664-56.76c0.2-0.384,0.36-0.792,0.496-1.208l23.072-72.464c1.056-3.328,4.112-5.568,7.616-5.568H464    V464.004z" fill="#28c5bc"/>
	</g>
</g>
<g>
	<g>
		<path d="M216,184.004c-4.424,0-8,3.584-8,8v16c0,4.416,3.576,8,8,8s8-3.584,8-8v-16C224,187.588,220.424,184.004,216,184.004z" fill="#28c5bc"/>
	</g>
</g>
<g>
	<g>
		<path d="M354.44,70.572c-12.176-7.192-35.432-6.928-52.4-6.688c-2.488,0.032-4.8,0.056-6.856,0.056    c-19.488,0-35.368,4.784-49.776,14.904c-1.616,1.064-3.16,2.208-4.968,3.576l-0.416,0.312c-1.76-1.36-3.504-2.608-5.216-3.744    c-11.712-8.224-24.272-12.872-38.816-14.416c-1.288-0.336-2.608-0.568-3.992-0.568h-5.2c-0.664-0.008-1.304-0.064-1.976-0.064    c-2.064,0-4.376-0.024-6.856-0.056c-6.392-0.08-13.672-0.168-20.896,0.12H152c-1.528,0-2.968,0.28-4.368,0.68    c-8.472,0.856-16.28,2.48-21.656,5.656c-28.912,14.856-42.968,46.064-42.968,95.408c0,29.344,11.976,68.248,28.032,91.464    c8.832,48.184,18.184,94.968,23,118.72c2.288,11.256,10.664,20.072,21.552,22.92c2.344,0.712,4.52,1.088,7.136,1.104    c0.272,0.032,0.568,0.048,0.776,0.048l26.144-0.032c2.784,0.208,4.808-0.24,7.088-0.896c10.304-2.512,18.592-10.336,21.736-20.704    l18.592-71.624c0.496-1.88,1.864-2.272,2.936-2.272s2.448,0.392,2.936,2.28l18.68,71.928c3.056,10.064,11.344,17.88,21.352,20.32    c2.376,0.672,4.56,1,6.696,1c0.232,0,0.528,0,0.728,0l26.096-0.04c0.272,0.024,0.552,0.04,0.768,0.04    c2.28,0,4.624-0.376,6.848-1.056c11.184-2.936,19.56-11.744,21.848-23c4.816-23.76,14.168-70.536,23-118.72    c16.056-23.216,28.032-62.12,28.032-91.464C396.992,116.404,382.936,85.196,354.44,70.572z M152,80.372    c2.128-0.16,4.28-0.288,6.472-0.368H185.8c2.144,0.024,4.16,0.232,6.2,0.4v7.6c0,4.408-3.584,8-8,8h-24c-4.416,0-8-3.592-8-8    V80.372z M330.272,372.764c-1.056,5.232-4.976,9.336-10.52,10.792c-1,0.304-1.792,0.448-2.48,0.448c-0.296,0-0.568,0-0.784,0    l-25.368,0.04c-0.48-0.048-1.152-0.088-1.728-0.048c-0.576-0.032-1.272-0.168-2.336-0.464c-4.832-1.184-8.712-4.824-10.048-9.192    l-18.592-71.616c-2.208-8.528-9.616-14.256-18.424-14.256s-16.208,5.728-18.424,14.256l-18.504,71.312    c-1.424,4.672-5.304,8.32-10.432,9.576c-0.928,0.264-1.664,0.392-2.296,0.392c-0.288,0-0.552,0-0.728,0l-25.344,0.04    c-0.352-0.04-0.84-0.08-1.232-0.08c-0.184,0-0.36,0.008-0.568,0.024c-0.624-0.032-1.376-0.184-2.504-0.528    c-5.248-1.376-9.168-5.48-10.224-10.704c-3.808-18.768-10.448-51.96-17.424-88.816c12.56-0.88,19.48-7.64,25.04-13.208    c5.048-5.048,8.688-8.688,16.408-8.688c7.72,0,11.368,3.648,16.416,8.696c5.96,5.96,13.376,13.376,27.728,13.376    s21.768-7.416,27.728-13.376c5.048-5.048,8.696-8.696,16.424-8.696c7.72,0,11.368,3.648,16.416,8.696    c5.96,5.96,13.376,13.376,27.728,13.376s21.784-7.416,27.744-13.376c5.048-5.048,8.696-8.696,16.432-8.696    c0.52,0,0.944,0.096,1.432,0.128C343.408,307.412,334.824,350.348,330.272,372.764z M380,179.548    c-0.288,2.376-0.56,4.744-0.976,7.184c-0.248,1.456-0.6,2.936-0.888,4.408c-0.44,2.232-0.864,4.456-1.4,6.696    c-0.376,1.576-0.84,3.152-1.264,4.728c-0.576,2.144-1.128,4.288-1.784,6.408c-0.488,1.608-1.056,3.176-1.584,4.76    c-0.688,2.048-1.368,4.104-2.12,6.104c-0.592,1.576-1.232,3.08-1.864,4.616c-0.784,1.928-1.568,3.856-2.408,5.696    c-0.68,1.488-1.392,2.896-2.104,4.32c-0.872,1.752-1.736,3.496-2.648,5.136c-0.752,1.36-1.536,2.624-2.312,3.896    c-0.648,1.064-1.312,2.088-1.976,3.088c-2.032-0.36-4.128-0.544-6.344-0.544c-14.352,0-21.784,7.416-27.744,13.376    c-5.048,5.048-8.696,8.696-16.432,8.696c-7.72,0-11.368-3.648-16.416-8.696c-5.96-5.96-13.376-13.376-27.728-13.376    s-21.776,7.416-27.736,13.384c-5.048,5.048-8.696,8.688-16.416,8.688c-7.72,0-11.368-3.648-16.416-8.696    c-5.96-5.96-13.376-13.376-27.728-13.376c-14.344,0-21.768,7.416-27.72,13.384c-5.112,5.112-9.144,8.752-16.68,8.688l-2.88-15.52    c-0.208-1.168-0.688-2.272-1.376-3.232c-14.624-20.28-26.08-57.008-26.08-83.616c0.032-43.36,10.92-69.152,34.728-81.4    c0.64-0.376,1.504-0.672,2.296-0.992v4.648c0,13.232,10.768,24,24,24h24c13.232,0,24-10.768,24-24V83.38    c6.28,2.016,12.168,4.88,17.808,8.832c1.112,0.728,2.208,1.552,3.304,2.368C215.376,110.692,208,132.732,208,160.004    c0,4.416,3.576,8,8,8s8-3.584,8-8c0-35.696,13.904-78.544,80.168-80c0.24-0.008,0.44-0.128,0.672-0.152    c13.504-0.144,33.656-0.104,41.864,4.728c23.392,12.016,34.28,37.808,34.28,81.176c0,3.256-0.184,6.672-0.512,10.176    C380.36,177.108,380.144,178.348,380,179.548z" fill="#28c5bc"/>
	</g>
</g>
<g>
	<g>
		<path d="M312,112.004h-8c-4.424,0-8,3.584-8,8s3.576,8,8,8h8c4.424,0,8-3.584,8-8S316.424,112.004,312,112.004z" fill="#28c5bc"/>
	</g>
</g>
<g>
	<g>
		<path d="M312,176.004h-8c-4.424,0-8,3.584-8,8s3.576,8,8,8h8c4.424,0,8-3.584,8-8S316.424,176.004,312,176.004z" fill="#28c5bc"/>
	</g>
</g>
<g>
	<g>
		<path d="M264,144.004h-8c-4.424,0-8,3.584-8,8s3.576,8,8,8h8c4.424,0,8-3.584,8-8S268.424,144.004,264,144.004z" fill="#28c5bc"/>
	</g>
</g>
<g>
	<g>
		<path d="M352,144.004h-8c-4.424,0-8,3.584-8,8s3.576,8,8,8h8c4.424,0,8-3.584,8-8S356.424,144.004,352,144.004z" fill="#28c5bc"/>
	</g>
</g>
<g>
	<g>
		<path d="M312,144.004h-8c-4.424,0-8,3.584-8,8s3.576,8,8,8h8c4.424,0,8-3.584,8-8S316.424,144.004,312,144.004z" fill="#28c5bc"/>
	</g>
</g>
<g>
	<g>
		<path d="M94.28,3.036C92.76,1.124,90.448,0.004,88,0.004H8c-4.424,0-8,3.584-8,8v130.92c0,4.984,1.52,9.768,4.392,13.84    l59.784,84.68c3.144,4.456,7.904,6.856,12.888,6.856c2.512,0,5.08-0.608,7.52-1.872c7.288-3.768,10.472-11.8,7.744-19.536    l-28-79.336L95.792,9.836C96.344,7.46,95.792,4.956,94.28,3.036z M48.208,142.172c-0.352,1.496-0.264,3.048,0.24,4.496    L77.24,228.22l-59.776-84.68c-0.96-1.36-1.464-2.952-1.464-4.616V16.004h61.896L48.208,142.172z" fill="#28c5bc"/>
	</g>
</g>
<g>
	<g>
		<path d="M37.68,106.324c-2.96-2.96-8.32-2.96-11.36,0c-1.448,1.52-2.32,3.6-2.32,5.68s0.872,4.16,2.32,5.68    c0.8,0.72,1.6,1.28,2.64,1.68c0.96,0.4,2,0.64,3.04,0.64c2.08,0,4.16-0.88,5.68-2.32c1.44-1.52,2.32-3.6,2.32-5.68    S39.12,107.844,37.68,106.324z" fill="#28c5bc"/>
	</g>
</g>
<g>
	<g>
		<path d="M40,72.004h-8c-4.424,0-8,3.584-8,8s3.576,8,8,8h8c4.424,0,8-3.584,8-8S44.424,72.004,40,72.004z" fill="#28c5bc"/>
	</g>
</g>
<g>
	<g>
		<path d="M48,40.004H32c-4.424,0-8,3.584-8,8s3.576,8,8,8h16c4.424,0,8-3.584,8-8S52.424,40.004,48,40.004z" fill="#28c5bc"/>
	</g>
</g>
<g>
	<g>
		<path d="M472,0.004h-80c-2.448,0-4.76,1.12-6.272,3.032c-1.512,1.92-2.072,4.424-1.512,6.8l31.464,133.72l-28,79.336    c-2.728,7.736,0.456,15.776,7.744,19.536c2.448,1.264,5.008,1.872,7.52,1.872c4.976,0,9.752-2.4,12.896-6.856l59.768-84.68    c2.872-4.072,4.4-8.856,4.4-13.84V8.004C480,3.588,476.424,0.004,472,0.004z M464,138.924c0,1.664-0.504,3.256-1.472,4.616    l-59.768,84.68l28.784-81.552c0.504-1.448,0.592-3,0.24-4.496l-29.68-126.168H464V138.924z" fill="#28c5bc"/>
	</g>
</g>
<g>
	<g>
		<path d="M455.36,108.964c-0.4-1.04-0.96-1.84-1.76-2.64c-1.84-1.84-4.56-2.64-7.2-2.16c-0.48,0.08-0.96,0.24-1.44,0.48    c-0.488,0.16-0.96,0.4-1.448,0.72c-0.4,0.24-0.8,0.64-1.192,0.96c-0.72,0.8-1.28,1.6-1.68,2.64c-0.4,0.96-0.64,2-0.64,3.04    c0,2.08,0.872,4.16,2.32,5.68c0.4,0.32,0.8,0.64,1.192,0.96c0.488,0.32,0.96,0.56,1.448,0.72c0.48,0.24,0.96,0.4,1.44,0.48    c0.56,0.08,1.112,0.16,1.6,0.16c2.08,0,4.16-0.88,5.6-2.32c0.4-0.4,0.72-0.8,1.04-1.2c0.32-0.48,0.552-0.96,0.72-1.44    c0.24-0.48,0.4-0.96,0.48-1.44c0.08-0.56,0.16-1.12,0.16-1.6C456,110.964,455.76,109.924,455.36,108.964z" fill="#28c5bc"/>
	</g>
</g>
<g>
	<g>
		<path d="M448,72.004h-8c-4.424,0-8,3.584-8,8s3.576,8,8,8h8c4.424,0,8-3.584,8-8S452.424,72.004,448,72.004z" fill="#28c5bc"/>
	</g>
</g>
<g>
	<g>
		<path d="M448,40.004h-16c-4.424,0-8,3.584-8,8s3.576,8,8,8h16c4.424,0,8-3.584,8-8S452.424,40.004,448,40.004z" fill="#28c5bc"/>
	</g>
</g>
<g>
</g>
<g>
</g>
<g>
</g>
<g>
</g>
<g>
</g>
<g>
</g>
<g>
</g>
<g>
</g>
<g>
</g>
<g>
</g>
<g>
</g>
<g>
</g>
<g>
</g>
<g>
</g>
<g>
</g>
</svg>
