<?xml version="1.0" encoding="iso-8859-1"?>
<!-- Generator: Adobe Illustrator 19.0.0, SVG Export Plug-In . SVG Version: 6.00 Build 0)  -->
<svg xmlns="http://www.w3.org/2000/svg" xmlns:xlink="http://www.w3.org/1999/xlink" version="1.1" id="Capa_1" x="0px" y="0px" viewBox="0 0 480.2 480.2" style="enable-background:new 0 0 480.2 480.2;" xml:space="preserve" width="512px" height="512px">
<g>
	<g>
		<path d="M472.1,352.2H306.4c-19.4-12-47.7-29.5-57.8-35.9c0.7-3.5,1.3-7,2-10.6c0.3-1.6,0.6-3.2,0.9-4.8    c1.2-6.5,2.5-13.1,3.8-19.9c0.4-2.2,0.8-4.3,1.2-6.5c1.6-8.7,3.3-17.5,4.9-26.4c31.6-43.6,37.4-106.7,37.4-117.9    c0-63-18.3-102.9-54.9-121.8c-15.3-8.9-45.3-8.5-66.9-8.2c-3.2,0-6.4,0.1-9.1,0.1c-24.8,0-45.1,6.1-63.4,19c-2,1.3-4,2.8-6.5,4.7    l-0.9,0.7c-0.3,0.2-0.6,0.5-1,0.7c-2.7-2.2-5.5-4.2-8.2-6C69.4,6.3,49.2,0.2,24.4,0.2c-2.7,0-5.7,0-9-0.1L8.2,0    C5.7,0.1,4,0.8,2.5,2.3S0.1,5.8,0.1,8v416.2v48c0,4.4,3.6,8,8,8h464c4.4,0,8-3.6,8-8v-112C480.1,355.8,476.5,352.2,472.1,352.2z     M264.7,208.2c-2.4,5.8-5,11.3-7.8,16.5c-0.3,0.6-0.7,1.2-1,1.8c-1,1.9-2.1,3.8-3.2,5.6c-0.3,0.6-0.7,1.1-1,1.7    c-1.4,2.2-2.8,4.4-4.3,6.4c-0.7,1-1.2,2.1-1.4,3.2c-1.6,8.9-3.2,17.7-4.8,26.4c0,0.1,0,0.1,0,0.2c-1.6,8.7-3.3,17.3-4.9,25.7    c-12.5-1.4-24.2-6.3-34.3-14.3c-1.4-1.1-3.2-1.7-5-1.7c-0.4,0-0.8,0-1.2,0.1c-1.2,0.2-2.4,0.4-3.7,0.4c-13.2,0-24-10.8-24-24    c0-5.8,2.2-11.5,6.3-16c1.4-1.5,2.1-3.7,2-5.8c0-0.2,0-0.7,0-0.8c-0.2-2.4-1.5-4.7-3.6-6c-8-5.2-12.7-14-12.7-23.4    c0-15.4,12.6-28,28-28c1.9,0,4,0.3,6.3,0.8c2.4,0.5,4.9,0,6.8-1.6c1.2-1,2.4-1.9,3.7-2.7c2-1.4,3.2-3.6,3.4-6    c0.8-12.6,11.3-22.5,23.8-22.5c9.2,0,17.4,5.2,21.5,13.6c1.1,2.2,3.1,3.8,5.4,4.3c6.5,1.5,12.6,3.7,18,6.7    C274,182.5,269.7,196,264.7,208.2z M16.1,16.1c3,0,5.8,0.1,8.3,0.1c21.4,0,38.6,5.2,54.6,16.3c2.2,1.5,4.5,3.1,6.7,4.9    c-18.3,20-29.6,46.3-29.6,74.8c0,4.4,3.6,8,8,8s8-3.6,8-8c0-46.4,38.5-96,95.7-96c2.8,0,5.8,0,9.2-0.1c17.6-0.2,47.1-0.6,58.5,6.1    c0.1,0.1,0.3,0.2,0.4,0.2c31.3,16.1,45.9,50.3,45.9,107.6c0,7.1-0.6,14.6-1.7,22.3c-4.4-2.1-9.1-3.8-14-5.1    c-7.2-11.9-20-19.1-34-19.1c-19.2,0-35.5,13.8-39.1,32.3c-1.7-0.2-3.3-0.3-4.9-0.3c-24.3,0-44,19.7-44,44c0,12.1,5,23.5,13.6,31.8    c-3.6,6.1-5.6,13.1-5.6,20.2c0,22.1,17.9,40,40,40c0.9,0,1.8,0,2.7-0.1c11.5,8.4,24.6,13.7,38.4,15.5    c-7.1,36.9-13.5,68.6-17.4,88.1c-1.6,7.7-7.3,13.7-15.4,15.8c-1.5,0.5-2.8,0.7-3.9,0.7c-0.4,0-0.8,0-1,0h-33.2    c-2.2,0-4.3-0.4-6.3-0.9c-6.8-1.9-12.2-7.1-14.1-13.3l-12.6-52.2l-6.9-34.3c-0.9-4.6-3.1-8.6-6.2-11.8    c-5.2-7.1-13.3-11.2-22.1-10.8c-8.2,0.4-15.3,4.8-19.5,11.9c-2.5,3-4.3,6.6-5.1,10.6l-6.9,34.5l-12.4,51.6    c-2.1,6.9-7.8,12.3-15.2,14.1c-1.5,0.4-2.6,0.6-3.7,0.6h-0.4c-0.1,0-0.2,0-0.2,0c-0.1,0-0.3,0-0.4,0H16.1V16.1z M16.1,464.2v-32    h14.5h5.8c15.2,0,28.4-10.8,31.4-25.7l10.7-53.4l9.2-38.5c0-0.1,0.1-0.2,0.2-0.3c1.4-1.3,3.3-2.1,5.3-2.1H99    c1.8,0,3.5,0.7,4.9,1.7c0.2,0.3,0.4,0.5,0.6,0.9l9.2,38.3l9.4,46.9c2.4,12.1,10.3,22,20.7,27.5c1.5,0.8,3,1.5,4.6,2.2    c0.4,0.2,0.8,0.3,1.2,0.4c1,0.3,2,0.7,3,0.9c2.9,0.8,5.5,1.2,8,1.2c0.2,0,0.4,0,0.5,0c0.2,0,0.3,0,0.4,0h0.7h33.2c0.5,0,0.8,0,1,0    h0.2c0.7,0,1.3-0.1,2-0.2c0.7-0.1,1.3-0.1,2-0.2c18-1.8,32.6-15.2,35.5-33.4l9.9-64.9c9.7,6.3,26.1,16.4,53.7,33.5    c1.3,0.8,2.7,1.2,4.2,1.2h160v96H16.1z" fill="#28c5bc"/>
	</g>
</g>
<g>
	<g>
		<path d="M472.1,0.2h-48c-4.4,0-8,3.6-8,8v176v40v17.2l-41.3,6.9l-47.3,7.9h-15.4c-13.2,0-24,10.8-24,24s10.8,24,24,24h15.3    l47.3,7.9l77.4,12.9c1.3,0.2,2.6,0.3,4,0.3c5.6,0,11.1-2,15.5-5.7c5.4-4.6,8.5-11.2,8.5-18.3v-77.1v-40V8.2    C480.1,3.8,476.5,0.2,472.1,0.2z M320.1,288.2h-8c-4.4,0-8-3.6-8-8c0-4.4,3.6-8,8-8h8V288.2z M368.1,294.8l-32-5.3V271l32-5.3    V294.8z M464.1,301.3c0,2.4-1,4.6-2.8,6.1s-4.1,2.2-6.5,1.8l-70.7-11.8V263l41.3-6.9c3.9-0.6,6.7-4,6.7-7.9v-16h32V301.3z     M464.1,216.2h-32v-24h32V216.2z M464.1,176.2h-32v-160h32V176.2z" fill="#28c5bc"/>
	</g>
</g>
<g>
	<g>
		<path d="M440.1,272.2h-8c-4.4,0-8,3.6-8,8c0,4.4,3.6,8,8,8h8c4.4,0,8-3.6,8-8C448.1,275.8,444.5,272.2,440.1,272.2z" fill="#28c5bc"/>
	</g>
</g>
<g>
	<g>
		<path d="M64.1,136.2c-4.4,0-8,3.6-8,8v16c0,4.4,3.6,8,8,8s8-3.6,8-8v-16C72.1,139.8,68.5,136.2,64.1,136.2z" fill="#28c5bc"/>
	</g>
</g>
<g>
</g>
<g>
</g>
<g>
</g>
<g>
</g>
<g>
</g>
<g>
</g>
<g>
</g>
<g>
</g>
<g>
</g>
<g>
</g>
<g>
</g>
<g>
</g>
<g>
</g>
<g>
</g>
<g>
</g>
</svg>
